<?xml version="1.0" encoding="UTF-8" standalone="no"?>
<svg
   xmlns:dc="http://purl.org/dc/elements/1.1/"
   xmlns:cc="http://creativecommons.org/ns#"
   xmlns:rdf="http://www.w3.org/1999/02/22-rdf-syntax-ns#"
   xmlns:svg="http://www.w3.org/2000/svg"
   xmlns="http://www.w3.org/2000/svg"
   xmlns:xlink="http://www.w3.org/1999/xlink"
   xmlns:sodipodi="http://sodipodi.sourceforge.net/DTD/sodipodi-0.dtd"
   xmlns:inkscape="http://www.inkscape.org/namespaces/inkscape"
   inkscape:export-ydpi="90.000000"
   inkscape:export-xdpi="90.000000"
   inkscape:export-filename="/home/jimmac/Desktop/wi-fi.png"
   width="32"
   height="32"
   id="svg11300"
   sodipodi:version="0.32"
   inkscape:version="1.0.1 (3bc2e813f5, 2020-09-07)"
   sodipodi:docname="plugin-DBUS.svg"
   inkscape:output_extension="org.inkscape.output.svg.inkscape"
   sodipodi:modified="true"
   version="1.0">
  <defs
     id="defs3">
    <linearGradient
       id="linearGradient3690">
      <stop
         style="stop-color:white;stop-opacity:1;"
         offset="0"
         id="stop3692" />
      <stop
         style="stop-color:white;stop-opacity:0.46875"
         offset="1"
         id="stop3694" />
    </linearGradient>
    <linearGradient
       inkscape:collect="always"
       xlink:href="#linearGradient3690"
       id="linearGradient2374"
       gradientUnits="userSpaceOnUse"
       gradientTransform="matrix(1.1587693,0,0,1.1842215,-5.6241726,-3.0096978)"
       x1="9.5"
       y1="16.26436"
       x2="9.5"
       y2="13.408723" />
  </defs>
  <sodipodi:namedview
     stroke="#ef2929"
     fill="#eeeeec"
     id="base"
     pagecolor="#ffffff"
     bordercolor="#666666"
     borderopacity="0.25490196"
     inkscape:pageopacity="0.0"
     inkscape:pageshadow="2"
     inkscape:zoom="18.296388"
     inkscape:cx="8.2158758"
     inkscape:cy="15.845411"
     inkscape:current-layer="layer1"
     showgrid="false"
     inkscape:grid-bbox="true"
     inkscape:document-units="px"
     inkscape:showpageshadow="false"
     inkscape:window-width="1920"
     inkscape:window-height="1052"
     inkscape:window-x="0"
     inkscape:window-y="0"
     showguides="true"
     inkscape:guide-bbox="true"
     inkscape:window-maximized="1"
     inkscape:document-rotation="0">
    <inkscape:grid
       type="xygrid"
       id="grid7889"
       empspacing="5"
       visible="true"
       enabled="true" />
  </sodipodi:namedview>
  <metadata
     id="metadata4">
    <rdf:RDF>
      <cc:Work
         rdf:about="">
        <dc:format>image/svg+xml</dc:format>
        <dc:type
           rdf:resource="http://purl.org/dc/dcmitype/StillImage" />
        <dc:creator>
          <cc:Agent>
            <dc:title>Patrick Niklaus</dc:title>
          </cc:Agent>
        </dc:creator>
        <dc:source />
        <cc:license
           rdf:resource="http://creativecommons.org/licenses/GPL/2.0/" />
        <dc:title></dc:title>
        <dc:subject>
          <rdf:Bag />
        </dc:subject>
      </cc:Work>
      <cc:License
         rdf:about="http://creativecommons.org/licenses/GPL/2.0/">
        <cc:permits
           rdf:resource="http://web.resource.org/cc/Reproduction" />
        <cc:permits
           rdf:resource="http://web.resource.org/cc/Distribution" />
        <cc:requires
           rdf:resource="http://web.resource.org/cc/Notice" />
        <cc:permits
           rdf:resource="http://web.resource.org/cc/DerivativeWorks" />
        <cc:requires
           rdf:resource="http://web.resource.org/cc/ShareAlike" />
        <cc:requires
           rdf:resource="http://web.resource.org/cc/SourceCode" />
      </cc:License>
    </rdf:RDF>
  </metadata>
  <g
     id="layer1"
     inkscape:label="Layer 1"
     inkscape:groupmode="layer">
    <rect
       style="fill:#8282ff;fill-opacity:1;stroke:#888a85;stroke-width:0.93329018;stroke-miterlimit:4;stroke-dasharray:none;stroke-opacity:1"
       id="rect8015"
       width="26.658609"
       height="25.779047"
       x="2.6321931"
       y="3.7284126"
       rx="1.8385248"
       ry="1.9685262" />
    <rect
       style="opacity:0.8;fill:none;stroke:url(#linearGradient2374);stroke-width:0.93329084;stroke-miterlimit:4;stroke-dasharray:none;stroke-opacity:1"
       id="rect8019"
       width="24.858728"
       height="24.626682"
       x="3.5321336"
       y="4.304595"
       rx="1.38902"
       ry="1.4839072" />
    <g
       id="g1459"
       transform="matrix(0.0541655,0,0,0.0541655,4.7796261,5.3817906)">
      <path
         d="m 188.634,234.066 c 8.462,-5.287 16.126,-11.735 22.767,-19.127 l 23.942,13.826 21.8,-37.76 -23.894,-13.796 c 3.038,-9.275 4.825,-19.113 5.16,-29.311 l 27.183,-4.793 -7.574,-42.938 -27.178,4.793 C 227.084,95.651 222.045,86.995 215.934,79.216 L 233.7,58.046 200.3,30.022 182.549,51.174 C 173.879,46.528 164.49,43.055 154.595,40.971 V 13.385 h -43.6 v 27.586 c -9.896,2.084 -19.285,5.557 -27.956,10.203 l -17.75,-21.152 -33.4,28.025 17.764,21.17 c -6.11,7.779 -11.149,16.436 -14.905,25.744 L 7.57,100.168 0,143.106 l 27.179,4.793 c 0.335,10.199 2.123,20.035 5.161,29.313 l -23.896,13.795 21.801,37.759 23.943,-13.822 c 6.639,7.389 14.303,13.838 22.766,19.125 l -9.451,25.963 40.972,14.91 9.438,-25.928 c 4.864,0.688 9.831,1.053 14.882,1.053 5.051,0 10.019,-0.363 14.883,-1.053 l 9.437,25.93 40.97,-14.914 z m -55.841,-34.001 c -30.702,0 -55.68,-24.977 -55.68,-55.68 0,-30.701 24.978,-55.68 55.68,-55.68 30.702,0 55.68,24.979 55.68,55.68 0,30.703 -24.977,55.68 -55.68,55.68 z"
         id="path2" />
      <path
         d="m 366.041,262.807 -18.795,6.08 c -3.584,-6.229 -8.014,-11.869 -13.115,-16.779 l 10.504,-16.764 -26.447,-16.57 -10.498,16.75 c -6.604,-2.438 -13.602,-3.973 -20.826,-4.471 l -2.725,-19.559 -30.912,4.309 2.725,19.559 c -6.809,2.453 -13.125,5.847 -18.812,9.996 l -14.672,-13.244 -20.912,23.168 14.684,13.259 c -3.562,6.118 -6.277,12.752 -8.02,19.726 l -19.744,-0.714 -1.129,31.188 19.743,0.716 c 1.246,7.198 3.486,13.991 6.558,20.271 l -15.578,12.143 19.185,24.615 15.609,-12.164 c 5.438,4.582 11.511,8.396 18.031,11.311 l -4.138,19.344 30.522,6.52 4.133,-19.314 c 3.516,0.01 7.072,-0.229 10.652,-0.727 3.582,-0.498 7.07,-1.25 10.447,-2.215 l 9.256,17.451 27.574,-14.623 -9.266,-17.471 c 5.48,-4.586 10.271,-9.918 14.252,-15.812 l 18.338,7.436 11.727,-28.924 -18.303,-7.422 c 1.234,-6.875 1.529,-14.027 0.764,-21.293 l 18.799,-6.084 z m -78.912,83.199 c -21.771,3.031 -41.949,-12.209 -44.98,-33.977 -3.037,-21.769 12.207,-41.949 33.977,-44.979 21.768,-3.036 41.941,12.207 44.98,33.978 3.029,21.767 -12.21,41.941 -33.977,44.978 z"
         id="path4" />
      <path
         d="m 412.146,158.647 0.732,-24.629 -15.586,-0.463 c -0.977,-5.428 -2.723,-10.803 -5.285,-15.971 l 12.24,-9.67 -15.271,-19.33 -12.238,9.666 c -4.365,-3.627 -9.193,-6.584 -14.318,-8.816 l 3.164,-15.291 -24.123,-4.996 -3.17,15.281 c -5.559,0.008 -11.156,0.797 -16.641,2.412 l -7.391,-13.727 -21.695,11.684 7.391,13.729 c -4.363,3.686 -8.107,7.934 -11.176,12.566 l -14.496,-5.77 -9.111,22.893 14.508,5.779 c -0.955,5.508 -1.141,11.158 -0.514,16.799 l -14.809,4.898 7.732,23.395 14.809,-4.896 c 2.9,4.986 6.426,9.396 10.426,13.201 l -8.191,13.268 20.963,12.946 8.209,-13.292 c 5.285,1.896 10.828,3.051 16.453,3.414 l 2.252,15.453 24.383,-3.561 -2.246,-15.434 c 2.602,-0.957 5.17,-2.109 7.684,-3.463 2.516,-1.352 4.891,-2.867 7.123,-4.51 l 11.648,10.371 16.387,-18.398 -11.656,-10.383 c 2.795,-4.9 4.875,-10.164 6.203,-15.619 z m -58.71,13.197 c -15.281,8.227 -34.404,2.492 -42.627,-12.783 -8.23,-15.277 -2.494,-34.404 12.787,-42.627 15.273,-8.229 34.395,-2.49 42.625,12.787 8.222,15.278 2.49,34.395 -12.785,42.623 z"
         id="path6" />
    </g>
  </g>
</svg>
