<?xml version="1.0" encoding="UTF-8" standalone="no"?>
<svg
   inkscape:export-ydpi="90.000000"
   inkscape:export-xdpi="90.000000"
   inkscape:export-filename="/home/jimmac/Desktop/wi-fi.png"
   width="32"
   height="32"
   id="svg11300"
   sodipodi:version="0.32"
   inkscape:version="1.1.1 (3bf5ae0d25, 2021-09-20)"
   sodipodi:docname="plugin-hinge.svg"
   inkscape:output_extension="org.inkscape.output.svg.inkscape"
   sodipodi:modified="true"
   version="1.0"
   xmlns:inkscape="http://www.inkscape.org/namespaces/inkscape"
   xmlns:sodipodi="http://sodipodi.sourceforge.net/DTD/sodipodi-0.dtd"
   xmlns:xlink="http://www.w3.org/1999/xlink"
   xmlns="http://www.w3.org/2000/svg"
   xmlns:svg="http://www.w3.org/2000/svg"
   xmlns:rdf="http://www.w3.org/1999/02/22-rdf-syntax-ns#"
   xmlns:cc="http://creativecommons.org/ns#"
   xmlns:dc="http://purl.org/dc/elements/1.1/">
  <defs
     id="defs3">
    <linearGradient
       id="linearGradient3690">
      <stop
         style="stop-color:white;stop-opacity:1;"
         offset="0"
         id="stop3692" />
      <stop
         style="stop-color:white;stop-opacity:0.46875"
         offset="1"
         id="stop3694" />
    </linearGradient>
    <linearGradient
       inkscape:collect="always"
       xlink:href="#linearGradient3690"
       id="linearGradient2374"
       gradientUnits="userSpaceOnUse"
       gradientTransform="matrix(1.1587693,0,0,1.1842215,-5.6241726,-3.0096978)"
       x1="9.5"
       y1="16.26436"
       x2="9.5"
       y2="13.408723" />
  </defs>
  <sodipodi:namedview
     stroke="#ef2929"
     fill="#eeeeec"
     id="base"
     pagecolor="#000000"
     bordercolor="#666666"
     borderopacity="0.25490196"
     inkscape:pageopacity="0"
     inkscape:pageshadow="2"
     inkscape:zoom="20.48"
     inkscape:cx="20.166016"
     inkscape:cy="19.165039"
     inkscape:current-layer="layer1"
     showgrid="false"
     inkscape:grid-bbox="true"
     inkscape:document-units="px"
     inkscape:showpageshadow="false"
     inkscape:window-width="1920"
     inkscape:window-height="1036"
     inkscape:window-x="0"
     inkscape:window-y="0"
     showguides="true"
     inkscape:guide-bbox="true"
     inkscape:window-maximized="1"
     inkscape:document-rotation="0"
     inkscape:pagecheckerboard="0">
    <inkscape:grid
       type="xygrid"
       id="grid7889"
       empspacing="5"
       visible="true"
       enabled="true" />
  </sodipodi:namedview>
  <metadata
     id="metadata4">
    <rdf:RDF>
      <cc:Work
         rdf:about="">
        <dc:format>image/svg+xml</dc:format>
        <dc:type
           rdf:resource="http://purl.org/dc/dcmitype/StillImage" />
        <dc:creator>
          <cc:Agent>
            <dc:title>Patrick Niklaus</dc:title>
          </cc:Agent>
        </dc:creator>
        <dc:source />
        <cc:license
           rdf:resource="http://creativecommons.org/licenses/GPL/2.0/" />
        <dc:subject>
          <rdf:Bag />
        </dc:subject>
      </cc:Work>
      <cc:License
         rdf:about="http://creativecommons.org/licenses/GPL/2.0/">
        <cc:permits
           rdf:resource="http://web.resource.org/cc/Reproduction" />
        <cc:permits
           rdf:resource="http://web.resource.org/cc/Distribution" />
        <cc:requires
           rdf:resource="http://web.resource.org/cc/Notice" />
        <cc:permits
           rdf:resource="http://web.resource.org/cc/DerivativeWorks" />
        <cc:requires
           rdf:resource="http://web.resource.org/cc/ShareAlike" />
        <cc:requires
           rdf:resource="http://web.resource.org/cc/SourceCode" />
      </cc:License>
    </rdf:RDF>
  </metadata>
  <g
     id="layer1"
     inkscape:label="Layer 1"
     inkscape:groupmode="layer">
    <rect
       style="fill:#8282ff;fill-opacity:1;stroke:#888a85;stroke-width:0.93329018;stroke-miterlimit:4;stroke-dasharray:none;stroke-opacity:1"
       id="rect8015"
       width="26.658609"
       height="25.779047"
       x="2.6321931"
       y="3.7284126"
       rx="1.8385248"
       ry="1.9685262" />
    <rect
       style="opacity:0.8;fill:none;stroke:url(#linearGradient2374);stroke-width:0.93329084;stroke-miterlimit:4;stroke-dasharray:none;stroke-opacity:1"
       id="rect8019"
       width="24.858728"
       height="24.626682"
       x="3.5321336"
       y="4.304595"
       rx="1.38902"
       ry="1.4839072" />
    <g
       id="g1094"
       style="image-rendering:optimizeQuality;shape-rendering:geometricPrecision;text-rendering:geometricPrecision;fill:#ffff00;stroke:#eab40a;stroke-opacity:1;fill-opacity:1"
       transform="matrix(5.4968142e-4,0,0,4.3681831e-4,5.1796396,7.0145912)">
      <path
         class="fil0"
         d="m 30292.7,7925.37 c 252.38,-544.39 107.77,-1147.26 -243.29,-1667.54 -215.38,-319.19 -508.12,-607.44 -836.4,-834.29 -326.45,-225.6 -685.63,-388.68 -1035.9,-458.97 -499.19,-100.17 -980.77,-9.33 -1313.28,366.2 l -0.66,-0.18 -2506.42,2823.11 c 659.55,68.67 1354.84,430.76 1931.27,952.75 591.79,535.89 1062.72,1243.73 1243.46,1976.96 l 2761.21,-3158.04 z m -7385.55,8446.97 c 0.09,-11.94 1.41,-23.93 4,-35.79 -74.66,-798.11 -546.82,-1555.11 -1171.48,-2107.82 -623.36,-551.56 -1392.57,-895.7 -2063.97,-870.22 l -3208.24,3587.02 c 647.33,78.56 1362.02,437.56 1958.12,968.72 623.22,555.33 1121.81,1302.24 1282.9,2116.46 z m 4783.78,-4944.28 c 15.31,69.9 18.57,143.65 3.46,222.48 -19.21,100.28 -68.31,205.16 -161.11,315.54 l -1.19,1.8 -3821.08,4421.16 0.06,0.05 c -90.51,112.4 -201.61,187.81 -331.85,212.46 -66.75,12.63 -136.04,11.61 -207.35,-4.95 l -3295.18,3768.74 c 32.02,192.74 -40.08,361.65 -163.37,508.3 l -1.18,1.8 -4276.39,4944.8 0.06,0.05 c -90.51,112.4 -201.61,187.81 -331.85,212.46 -59.02,11.17 -120.04,11.66 -182.67,0.18 l -3064.54,3504.96 8428.8,3734.28 18343.92,-21858.68 -8139.31,-3186.94 -2799.24,3201.53 z m -8283.73,8947.23 c -72.09,-839.61 -569.72,-1628.59 -1213.07,-2201.87 -629.02,-560.5 -1391.02,-910.59 -2023.86,-895.63 L 12907.4,20925.9 c 684.56,63.29 1401.38,460.34 1993.96,1022.58 617.76,586.12 1105.28,1356.16 1281.26,2114.8 l 3224.58,-3688 z m -3491.18,-3334.46 c 15,-35.59 41.6,-65.37 75.38,-84.28 l 3443.59,-3850.16 c 12.87,-23.59 31.08,-43.97 53.14,-59.42 L 22566.7,9604.92 c 79.61,-282.53 298.44,-623.96 552.91,-902.12 244.53,-267.3 530.45,-483.69 771.43,-547.02 L 25300.78,6567.92 20124.07,5264.6 c -680.2,-171.36 -696.46,-175.45 -1204.26,372.15 L 548.34,25448.26 c -27.08,29.21 -47.59,52.95 -55.92,66.31 l 3.62,12.02 c 9.06,-1.11 26.8,-3.81 56.67,6.36 l -0.05,0.15 6298.6,2008.25 c 14.13,-284.11 117.63,-534.48 321.07,-744.02 l -0.07,-0.06 c 1279.32,-1472.06 2598.24,-2912.91 3900.13,-4365.71 101.46,-317.67 311.72,-690.97 577.61,-983.16 224.37,-246.56 491.87,-439.7 775.35,-504.78 z M 19977.2,13021.4 c 677.33,67.76 1399.76,421.59 1992.97,946.47 611.5,541.06 1090.32,1266.99 1245.61,2051.48 l 2763.39,-3160.53 c -4.72,-38.39 -10.43,-76.72 -17.09,-114.94 -124.7,-716.06 -582.7,-1466.82 -1173.91,-2025.48 -583.17,-551.06 -1289.74,-909.98 -1921.39,-852.78 -25.34,2.3 -50.31,5.22 -74.89,8.77 l -2814.69,3147 z m 3976.84,-4522.57 c -165.13,50.59 -380.5,223.56 -577.62,439.02 -165.48,180.89 -312.33,386.99 -402.96,574.22 698.61,-9.43 1443.24,377.05 2052.98,953.21 598.56,565.6 1072.38,1318.63 1245.36,2058.83 l 970.64,-1110.13 c -104.89,-748.13 -574.94,-1495.94 -1186.83,-2050.03 -633.45,-573.63 -1412.67,-934.85 -2086.34,-866.01 -5.11,0.52 -10.19,0.8 -15.23,0.88 z m -11418.92,12776.7 c -218.18,37.95 -437.66,197.49 -627.96,406.61 -179.1,196.81 -328.77,433.6 -428.11,656.74 718.93,-4 1492.58,401.9 2128.57,1001.49 634.27,597.96 1137.24,1393.52 1312.77,2166.54 l 969.29,-1108.59 c -0.88,-7.21 -1.8,-14.38 -2.74,-21.5 -101.15,-762.7 -587.4,-1572.09 -1224.83,-2176.88 -630.35,-598.08 -1402.4,-990.61 -2084.13,-928.87 -14.74,1.33 -29.04,2.82 -42.86,4.46 z m -1235.57,1423.22 -3060.82,3415.62 c 629.66,21.36 1375.35,348.37 2014.04,843.75 668.21,518.28 1226.76,1225.83 1420.15,1965.31 20.91,79.95 37.59,160.27 49.73,240.78 l 2903.44,-3320.7 c -5.14,-44.59 -11.6,-89.13 -19.34,-133.56 -129.28,-742.38 -614.23,-1528.94 -1237.41,-2116.45 -615.05,-579.85 -1358.2,-960.27 -2013.89,-900.89 -18.84,1.71 -37.48,3.75 -55.9,6.14 z M 18687.54,8836.94 c 42.45,-178.11 144.56,-350.22 292.04,-501.66 221.3,-227.24 547.29,-409.38 925.47,-492.56 336.96,-74.11 660.7,-57.46 924.56,30.25 177.74,59.08 329.23,150.52 441.31,268.69 48.35,-122.6 65.63,-247.72 45.84,-369.21 -2.06,-12.69 -4.16,-23.83 -6.27,-33.45 -48.89,-222.25 -222,-399.3 -468.29,-509.44 -266.48,-119.17 -614.61,-159.94 -989.11,-98.93 -42.01,6.84 -82.95,14.63 -122.68,23.36 -411.1,90.42 -763.11,286.01 -999.89,529.13 -221.26,227.19 -337.74,492.82 -296.98,743.02 2.06,12.67 4.16,23.82 6.28,33.45 32.54,147.96 120.15,275.86 247.72,377.34 z m 2477.43,-497.82 c -88.98,-118.95 -228.9,-210.99 -401.08,-268.22 -229.96,-76.44 -514.98,-90.32 -814.54,-24.43 -336.94,74.11 -625.76,234.73 -820.32,434.51 -141.33,145.11 -231.44,309.84 -250.86,474.16 9.85,4.74 19.82,9.38 29.93,13.9 266.48,119.17 614.61,159.94 989.1,98.93 42.02,-6.84 82.97,-14.63 122.69,-23.37 411.1,-90.42 763.11,-286.01 999.89,-529.13 55.19,-56.67 103.85,-115.73 145.19,-176.34 z m -1508.4,-1524.7 c 48.5,-10.67 95.37,-19.67 140.56,-27.02 442.26,-72.05 860.24,-20.83 1186.4,125.02 346.35,154.88 592.44,415.92 666.53,752.74 4.03,18.33 7.35,35.46 9.94,51.34 59.56,365.64 -94.27,737 -391.12,1041.81 -281.34,288.87 -695.29,520.32 -1175.15,625.87 -48.5,10.67 -95.38,19.66 -140.58,27.03 -442.25,72.05 -860.23,20.83 -1186.39,-125.02 -346.35,-154.88 -592.44,-415.91 -666.52,-752.74 -4.04,-18.33 -7.35,-35.46 -9.94,-51.34 -59.57,-365.64 94.26,-737 391.12,-1041.81 281.34,-288.87 695.29,-520.33 1175.14,-625.87 z m -4648.09,7445.02 c 42.45,-178.11 144.56,-350.23 292.04,-501.66 221.3,-227.23 547.28,-409.37 925.47,-492.56 336.96,-74.11 660.7,-57.46 924.56,30.25 177.75,59.08 329.22,150.52 441.3,268.7 48.35,-122.6 65.64,-247.73 45.85,-369.22 -2.06,-12.67 -4.16,-23.83 -6.28,-33.45 -48.89,-222.26 -222,-399.31 -468.29,-509.44 -266.48,-119.17 -614.61,-159.93 -989.11,-98.93 -42.02,6.85 -82.96,14.63 -122.68,23.37 -411.1,90.42 -763.11,286.01 -999.89,529.13 -221.26,227.19 -337.74,492.81 -296.98,743.02 2.06,12.66 4.16,23.81 6.28,33.45 32.54,147.95 120.15,275.86 247.72,377.34 z m 2477.43,-497.81 c -88.98,-118.95 -228.9,-211 -401.08,-268.22 -229.96,-76.44 -514.98,-90.32 -814.54,-24.44 -336.94,74.11 -625.76,234.74 -820.32,434.51 -141.32,145.11 -231.43,309.84 -250.85,474.16 9.85,4.74 19.82,9.38 29.92,13.9 266.48,119.17 614.61,159.93 989.11,98.92 42.02,-6.84 82.96,-14.63 122.68,-23.37 411.11,-90.42 763.11,-286.01 999.89,-529.13 55.19,-56.67 103.86,-115.72 145.19,-176.33 z m -1508.4,-1524.71 c 48.5,-10.67 95.37,-19.66 140.57,-27.02 442.26,-72.05 860.24,-20.83 1186.39,125.02 346.35,154.88 592.45,415.92 666.54,752.74 4.03,18.33 7.35,35.46 9.93,51.34 59.57,365.64 -94.26,737 -391.12,1041.81 -281.34,288.88 -695.28,520.33 -1175.14,625.87 -48.5,10.67 -95.37,19.66 -140.57,27.03 -442.26,72.05 -860.23,20.83 -1186.39,-125.02 -346.35,-154.88 -592.44,-415.91 -666.53,-752.74 -4.03,-18.32 -7.35,-35.45 -9.94,-51.34 -59.57,-365.64 94.27,-737 391.12,-1041.81 281.34,-288.88 695.3,-520.33 1175.14,-625.87 z m -6961.9,6870.56 c 42.45,-178.11 144.56,-350.23 292.04,-501.66 221.3,-227.23 547.29,-409.37 925.47,-492.56 336.96,-74.11 660.7,-57.46 924.56,30.25 177.74,59.08 329.22,150.52 441.3,268.69 48.35,-122.6 65.63,-247.72 45.84,-369.22 -2.06,-12.67 -4.16,-23.82 -6.27,-33.44 -48.89,-222.27 -222,-399.31 -468.29,-509.44 -266.48,-119.17 -614.61,-159.93 -989.11,-98.92 -42.02,6.84 -82.95,14.63 -122.67,23.36 -411.1,90.42 -763.11,286.01 -999.89,529.13 -221.26,227.19 -337.74,492.81 -296.97,743.02 2.06,12.67 4.16,23.81 6.28,33.46 32.54,147.95 120.15,275.85 247.72,377.33 z m 2477.43,-497.81 c -88.98,-118.95 -228.91,-210.99 -401.08,-268.22 -229.96,-76.44 -514.98,-90.31 -814.54,-24.43 -336.94,74.11 -625.75,234.74 -820.31,434.51 -141.33,145.11 -231.43,309.84 -250.86,474.16 9.85,4.74 19.82,9.38 29.92,13.9 266.48,119.16 614.59,159.93 989.09,98.93 42.03,-6.84 82.97,-14.63 122.7,-23.37 411.1,-90.42 763.11,-286.02 999.89,-529.13 55.19,-56.67 103.85,-115.72 145.19,-176.34 z M 9984.63,17084.96 c 48.5,-10.67 95.37,-19.66 140.57,-27.02 442.26,-72.05 860.24,-20.83 1186.39,125.02 346.35,154.88 592.44,415.92 666.53,752.74 4.03,18.33 7.35,35.46 9.94,51.34 59.56,365.64 -94.27,737 -391.12,1041.81 -281.34,288.87 -695.29,520.32 -1175.15,625.87 -48.5,10.67 -95.38,19.67 -140.59,27.03 -442.25,72.04 -860.22,20.83 -1186.37,-125.02 -346.34,-154.88 -592.43,-415.91 -666.52,-752.73 -4.03,-18.31 -7.35,-35.46 -9.94,-51.35 -59.57,-365.63 94.27,-737 391.12,-1041.81 281.34,-288.87 695.29,-520.33 1175.14,-625.87 z m -4583.96,7597.96 c 127.34,-534.3 716.97,-884.12 1217.51,-994.22 336.96,-74.11 660.7,-57.46 924.56,30.24 177.75,59.08 329.23,150.52 441.31,268.7 48.35,-122.59 65.64,-247.72 45.85,-369.22 -108.07,-663.79 -1068.59,-732.34 -1586.35,-618.45 -468.8,103.11 -1180.66,483.68 -1291.44,1016.29 -54.26,260.84 37.24,498.56 248.57,666.66 z m 2477.43,-497.81 c -88.98,-118.95 -228.91,-210.99 -401.08,-268.22 -229.95,-76.44 -514.98,-90.31 -814.54,-24.43 -429.68,94.5 -1013.62,421.78 -1071.17,908.66 9.85,4.74 19.82,9.39 29.93,13.91 707.95,316.59 1816.15,16.32 2256.87,-629.91 z M 6369.69,22660.4 c 727.89,-160.09 1858.39,11.2 2003.43,902.08 208.12,1277.56 -1811.53,2053.41 -2893.23,1569.69 -500.33,-223.74 -790.81,-688.11 -660.76,-1219.99 159.78,-653.48 933.55,-1116.06 1550.56,-1251.78 z m 24513.69,-9942.36 c 72.1,-177.81 206.27,-339.37 384.72,-471.44 263.97,-195.36 627.28,-327.21 1027.35,-349.24 356.37,-19.62 684.28,51.31 939.35,184.88 174.44,91.35 315.56,212.44 410.21,354.9 72.96,-120.31 113.29,-248.94 113.3,-380.25 0,-12.93 -0.3,-24.76 -0.89,-35.49 -13.1,-238.02 -161.8,-449.91 -397.12,-604.75 -253.66,-166.92 -604.48,-267 -999.64,-267 -43.76,0 -87.04,1.15 -129.67,3.5 -437.37,24.08 -831.49,165.96 -1115.13,375.87 -265.95,196.83 -430.46,451.21 -430.46,716.47 0,12.93 0.3,24.77 0.89,35.5 8.85,160.78 79.59,309.64 197.09,437.04 z m 2624.94,-103.44 c -71.15,-139.22 -200.78,-259.04 -370.31,-347.81 -223.01,-116.78 -513.11,-178.61 -831.61,-161.08 -358.13,19.72 -681.26,136.2 -914.17,308.56 -171.39,126.85 -292.35,283.19 -338.78,451.13 9.83,6.89 19.8,13.68 29.94,20.36 253.66,166.91 604.48,267 999.64,267 43.77,0 87.04,-1.15 129.68,-3.5 437.37,-24.09 831.49,-165.96 1115.13,-375.87 66.92,-49.53 127.41,-102.7 180.48,-158.78 z m -1295.6,-1808.67 c 50.89,-2.8 100.3,-4.18 148.17,-4.18 463.04,0 881.04,121.81 1189.78,324.98 327.1,215.24 534.44,521.65 553.96,876.41 1.04,18.91 1.57,36.91 1.57,53.99 0,381.82 -218.39,734.36 -571.48,995.67 -335.41,248.23 -796.5,415.73 -1303.75,443.67 -50.89,2.8 -100.3,4.18 -148.17,4.18 -463.04,0 -881.03,-121.81 -1189.78,-324.98 -327.09,-215.24 -534.43,-521.65 -553.96,-876.41 -1.04,-18.91 -1.57,-36.92 -1.57,-53.99 0,-381.82 218.39,-734.36 571.48,-995.67 335.41,-248.23 796.5,-415.73 1303.75,-443.66 z m -4117.54,7903.7 c 72.09,-177.81 206.27,-339.37 384.72,-471.43 263.97,-195.36 627.28,-327.21 1027.35,-349.24 356.37,-19.62 684.29,51.31 939.35,184.88 174.44,91.35 315.56,212.44 410.21,354.9 72.96,-120.31 113.29,-248.94 113.3,-380.25 0,-12.93 -0.3,-24.77 -0.89,-35.5 -13.11,-238.01 -161.8,-449.89 -397.12,-604.74 -253.66,-166.92 -604.48,-267 -999.63,-267 -43.77,0 -87.05,1.16 -129.69,3.5 -437.37,24.08 -831.5,165.96 -1115.13,375.87 -265.95,196.83 -430.45,451.21 -430.45,716.48 0,12.93 0.3,24.76 0.89,35.5 8.85,160.78 79.59,309.63 197.09,437.04 z m 2624.94,-103.44 c -71.15,-139.22 -200.77,-259.04 -370.31,-347.82 -223.02,-116.78 -513.11,-178.62 -831.61,-161.08 -358.13,19.72 -681.27,136.19 -914.17,308.56 -171.39,126.84 -292.35,283.18 -338.77,451.13 9.82,6.89 19.8,13.68 29.94,20.36 253.66,166.91 604.48,267 999.64,267 43.77,0 87.04,-1.16 129.68,-3.5 437.37,-24.08 831.49,-165.96 1115.13,-375.87 66.92,-49.52 127.41,-102.7 180.47,-158.77 z m -1295.6,-1808.67 c 50.89,-2.8 100.31,-4.18 148.19,-4.18 463.03,0 881.03,121.82 1189.77,324.99 327.09,215.24 534.43,521.64 553.96,876.4 1.04,18.91 1.57,36.93 1.57,54 0,381.81 -218.39,734.36 -571.47,995.67 -335.41,248.23 -796.5,415.73 -1303.75,443.66 -50.89,2.8 -100.3,4.18 -148.17,4.18 -463.04,0 -881.03,-121.82 -1189.78,-324.99 -327.09,-215.24 -534.43,-521.65 -553.96,-876.4 -1.04,-18.91 -1.57,-36.92 -1.57,-54 0,-381.81 218.39,-734.36 571.47,-995.67 335.41,-248.23 796.5,-415.73 1303.75,-443.67 z m -7655.47,6572.81 c 72.1,-177.81 206.28,-339.37 384.72,-471.44 263.97,-195.36 627.28,-327.21 1027.35,-349.24 356.36,-19.62 684.28,51.31 939.35,184.88 174.44,91.35 315.56,212.44 410.21,354.9 72.96,-120.31 113.29,-248.94 113.29,-380.25 0,-12.93 -0.3,-24.76 -0.89,-35.5 -13.1,-238.01 -161.8,-449.9 -397.12,-604.75 -253.66,-166.92 -604.48,-267 -999.64,-267 -43.77,0 -87.04,1.16 -129.68,3.5 -437.37,24.08 -831.49,165.96 -1115.13,375.87 -265.95,196.83 -430.46,451.21 -430.46,716.47 0,12.93 0.3,24.77 0.89,35.5 8.85,160.78 79.59,309.64 197.1,437.04 z m 2624.94,-103.44 c -71.15,-139.22 -200.77,-259.04 -370.31,-347.81 -223.01,-116.78 -513.11,-178.62 -831.61,-161.08 -358.13,19.72 -681.26,136.19 -914.17,308.56 -171.39,126.84 -292.35,283.18 -338.78,451.12 9.83,6.89 19.8,13.68 29.95,20.36 253.66,166.91 604.48,267 999.64,267 43.77,0 87.04,-1.16 129.68,-3.5 437.37,-24.08 831.5,-165.96 1115.13,-375.87 66.92,-49.53 127.41,-102.7 180.48,-158.78 z m -1295.6,-1808.67 c 50.89,-2.8 100.3,-4.18 148.18,-4.18 463.04,0 881.03,121.82 1189.78,324.99 327.09,215.24 534.43,521.65 553.96,876.4 1.04,18.91 1.57,36.92 1.57,54 0,381.82 -218.39,734.35 -571.48,995.67 -335.41,248.23 -796.5,415.73 -1303.75,443.66 -50.89,2.8 -100.3,4.18 -148.17,4.18 -463.04,0 -881.03,-121.81 -1189.78,-324.98 -327.09,-215.24 -534.43,-521.65 -553.96,-876.41 -1.04,-18.91 -1.57,-36.92 -1.57,-53.99 0,-381.82 218.39,-734.36 571.48,-995.67 335.41,-248.23 796.5,-415.73 1303.75,-443.67 z m -4629.31,8594.09 c 72.09,-177.81 206.28,-339.37 384.72,-471.44 263.97,-195.36 627.28,-327.21 1027.34,-349.24 356.36,-19.62 684.28,51.3 939.35,184.87 174.44,91.35 315.56,212.43 410.21,354.9 72.96,-120.31 113.29,-248.94 113.29,-380.24 0,-12.93 -0.3,-24.77 -0.89,-35.5 -13.1,-238.01 -161.81,-449.89 -397.12,-604.74 -253.65,-166.91 -604.48,-267 -999.63,-267 -43.77,0 -87.05,1.15 -129.69,3.5 -437.37,24.08 -831.49,165.96 -1115.13,375.87 -265.95,196.83 -430.45,451.21 -430.46,716.47 0,12.93 0.3,24.77 0.89,35.5 8.85,160.78 79.59,309.64 197.1,437.04 z m 2624.94,-103.44 c -71.15,-139.22 -200.78,-259.04 -370.31,-347.82 -223.01,-116.79 -513.11,-178.62 -831.61,-161.07 -358.14,19.72 -681.27,136.19 -914.17,308.56 -171.39,126.85 -292.35,283.19 -338.78,451.13 9.82,6.89 19.8,13.68 29.94,20.36 253.66,166.91 604.48,267 999.64,267 43.77,0 87.04,-1.15 129.68,-3.5 437.37,-24.08 831.49,-165.96 1115.13,-375.87 66.92,-49.52 127.42,-102.7 180.48,-158.77 z m -1295.6,-1808.67 c 50.9,-2.8 100.31,-4.18 148.19,-4.18 463.03,0 881.02,121.82 1189.77,324.99 327.08,215.23 534.42,521.64 553.96,876.39 1.04,18.91 1.57,36.93 1.56,54 0,381.81 -218.39,734.36 -571.47,995.67 -335.41,248.23 -796.5,415.73 -1303.75,443.66 -50.89,2.8 -100.3,4.18 -148.17,4.18 -463.04,0 -881.03,-121.82 -1189.78,-324.98 -327.09,-215.24 -534.43,-521.65 -553.96,-876.41 -1.04,-18.91 -1.57,-36.92 -1.57,-53.99 0,-381.81 218.39,-734.36 571.47,-995.67 335.41,-248.23 796.5,-415.73 1303.76,-443.66 z m -9696.31,2433.89 c 147.19,-1.45 278.43,-36.08 379.11,-106.72 96.07,-67.41 166.98,-171.33 199.72,-314.93 43.26,-189.8 22.3,-446.16 -88.11,-776.59 -149.9,-448.62 -451.78,-875.39 -831,-1232.88 -488.24,-460.26 -1392.96,-1017.09 -2099.5,-953.3 -427.56,38.59 -512.34,359.58 -427.21,732.23 195.75,856.81 1051.84,1749.54 1697.41,2179.72 317.36,211.48 789.76,476.22 1169.59,472.47 z M 7589.7,26847.63 c 13.72,-1.68 27.55,-3.15 41.48,-4.41 815.09,-73.59 1802.37,512.54 2368.93,1046.63 418.7,394.7 753.54,870.48 922.35,1375.69 131.91,394.78 153.76,715.04 96.82,964.88 -13.21,57.96 -30.56,112.16 -51.69,162.66 41.65,-38.09 81.07,-79.63 117.89,-123.81 200.24,-240.28 320.74,-552.42 312.92,-816.64 l 0.05,-2.8 c -2.09,-146.12 -23.54,-293 -61.71,-438.94 -172.67,-660.24 -683.43,-1301.33 -1297.23,-1777.41 -612.13,-474.78 -1319.26,-780.49 -1888.13,-772.37 -87.13,1.24 -170.43,9.95 -248.94,26.68 l -312.74,359.85 z m 1151.13,3543.55 c -519.32,-346.05 -1008.7,-822.21 -1363.2,-1358.51 L 516.09,26795.5 177.6,25672.74 c -21.61,-38.9 -33.19,-81.06 -36.23,-125.86 -8.04,-118.62 55.09,-230.3 151.81,-334.6 L 18664.66,5400.77 c 647.72,-698.48 668.67,-693.21 1545.28,-472.37 l 5350.51,1347.07 1043,-1174.79 -0.46,-0.41 c 425.7,-480.77 1026.65,-600.19 1642.91,-476.52 397.86,79.84 801.64,262.17 1165.04,513.3 361.57,249.87 685.59,569.69 925.96,925.91 385.01,570.6 556,1233.94 332.05,1860.13 l 8303.55,3251.25 c 6.35,2.07 12.61,4.52 18.75,7.34 l 87.28,34.17 11.06,91.6 c 1.44,7.64 2.37,15.37 2.79,23.12 l 137.03,1135.2 c -6210.58,7442 -12420.97,14884.15 -18631.81,22325.93 l -9390.22,-4146.99 c -211.04,194.46 -472.37,325.32 -761.84,335.36 -617.67,21.44 -1202.48,-254.28 -1704.68,-588.92 z m -8.76,-2193.35 c 295.86,-10.26 707.15,263.8 918.63,612.14 211.47,348.33 143.06,639.04 -152.8,649.3 -295.87,10.26 -707.15,-263.8 -918.63,-612.14 -211.47,-348.33 -143.07,-639.04 152.8,-649.3 z m 2712.82,2172.49 8862.08,3913.75 -147.48,-688.22 -8466.35,-3750.93 c -50.81,181.94 -136.08,363.39 -248.25,525.39 z M 7117.43,28582.39 c -116.85,-234.75 -197.26,-458.44 -237.65,-668.69 -6.58,-1.26 -13.16,-2.89 -19.7,-4.96 l -6246.31,-1991.59 182.13,604.12 6321.54,2061.11 z m 13525.24,5612.7 18223.74,-21836.96 -72.31,-599.11 -18289.14,21793.39 137.72,642.67 z"
         id="path6"
         style="fill:#ffff00;fill-opacity:1;stroke:#eab40a;stroke-opacity:1" />
      <text
         x="0"
         y="39385.078"
         fill="#000000"
         font-size="5px"
         font-weight="bold"
         font-family="'Helvetica Neue', Helvetica, Arial-Unicode, Arial, Sans-serif"
         id="text10"
         style="fill:#ffff00;stroke:#eab40a;stroke-opacity:1;fill-opacity:1">Created by Oleksandr Panasovskyi</text>
      <text
         x="0"
         y="39390.078"
         fill="#000000"
         font-size="5px"
         font-weight="bold"
         font-family="'Helvetica Neue', Helvetica, Arial-Unicode, Arial, Sans-serif"
         id="text12"
         style="fill:#ffff00;stroke:#eab40a;stroke-opacity:1;fill-opacity:1">from the Noun Project</text>
      <path
         style="fill:#ffff00;fill-opacity:1;stroke:#eab40a;stroke-width:378.558;stroke-opacity:1"
         d="m 16183.904,31402.429 c -2211.91,-983.749 -4058.538,-1825.517 -4103.619,-1870.598 -110.34,-110.34 2730.905,-3341.713 3028.783,-3444.662 284.832,-98.438 4729.555,-5205.979 4810.279,-5527.61 85.171,-339.348 3205.618,-3866.97 3481.982,-3936.334 288.476,-72.402 4328.079,-4724.101 4328.079,-4983.885 0,-170.2 2675.593,-3311.7916 2819.366,-3310.4069 220.597,2.1246 7907.846,3092.3469 7885.158,3169.7809 -31.877,108.797 -18044.412,21590.439 -18155.246,21651.838 -40.22,22.28 -1882.872,-764.375 -4094.782,-1748.123 z m 4699.822,-816.011 c 837.954,-431.074 1099.453,-1339.35 550.557,-1912.274 -817.563,-853.351 -2673.725,-699.591 -3330.793,275.915 -417.206,619.397 -167.678,1378.597 566.13,1722.475 536.695,251.507 1641.324,208.544 2214.106,-86.116 z m 3099.642,-6586.3 c 470.364,-197.132 894.368,-611.14 993.466,-970.044 278.388,-1008.238 -794.814,-1793.531 -2143.3,-1568.314 -1020.122,170.376 -1633.165,720.45 -1633.906,1466.078 -0.977,984.907 1558.721,1585.694 2783.74,1072.28 z m 6481.389,-4754.096 c 600.233,-299.109 860.112,-677.577 860.603,-1253.319 0.284,-349.386 -50.406,-462.577 -321.922,-718.649 -1093.062,-1030.89 -3463.309,-388.544 -3463.309,938.571 0,790.605 661.048,1272.094 1755.911,1278.953 537.214,3.369 765.408,-44.579 1168.717,-245.556 z m 2493.682,-5847.584 c 902.931,-322.224 1346.355,-999.81 1114.345,-1702.806 -319.903,-969.316 -2162.154,-1236.851 -3196.708,-464.232 -847.394,632.845 -757.943,1587.461 193.162,2061.417 550.166,274.159 1299.529,316.054 1889.201,105.621 z"
         id="path6072" />
      <path
         style="fill:#ffff00;fill-opacity:1;stroke:#eab40a;stroke-width:378.558;stroke-opacity:1"
         d="M 3619.9654,26471.201 C 1993.347,25946.506 662.47733,25492.269 662.47733,25461.784 c 0,-61.898 17389.08867,-18843.5726 18270.91167,-19734.1177 l 560.326,-565.8683 2840.212,705.6042 c 1562.117,388.0823 2839.47,727.8987 2838.566,755.1475 -3.152,94.8126 -1467.641,1565.5444 -1820.884,1828.6425 -195.587,145.6759 -472.511,469.5426 -615.383,719.7039 -389.86,682.6176 -10245.814,11656.6939 -10673.186,11884.0179 -305.843,162.682 -990.205,999.085 -990.205,1210.194 0,41.054 -921.457,1106.009 -2047.6832,2366.568 -1126.2259,1260.558 -2088.6182,2409.348 -2138.6495,2552.868 -50.0314,143.52 -140.0347,256.378 -200.0074,250.796 -59.9728,-5.582 -1439.9111,-439.445 -3066.5295,-964.139 z m 3853.9607,-1472.035 c 594.0309,-291.75 948.9999,-743.164 948.9999,-1206.844 0,-661.101 -316.7995,-1000.544 -1096.9791,-1175.386 -1220.4398,-273.506 -2679.3476,662.271 -2559.6372,1641.812 123.4286,1009.964 1430.8434,1367.486 2707.6164,740.418 z m 3419.9619,-5446.748 c 950.792,-397.321 1364.972,-1211.539 987.553,-1941.387 -421.993,-816.046 -2225.1792,-779.18 -3105.1258,63.485 -500.6085,479.398 -518.9862,1314.657 -37.7074,1713.79 472.6612,391.986 1434.6832,465.238 2155.2802,164.112 z m 6104.046,-4929.727 c 1165.955,-517.703 1378.712,-1763.096 391.204,-2289.944 -378.487,-201.929 -1312.057,-221.423 -1773.601,-37.036 -806.859,322.341 -1230.315,841.955 -1230.315,1509.694 0,477.554 409.033,923.423 926.419,1009.848 193.169,32.267 393.804,70.775 445.855,85.574 200.176,56.912 777.293,-72.492 1240.438,-278.136 z m 3359.122,-5268.7733 c 820.188,-280.5616 1313.789,-831.6436 1314.793,-1467.9082 1.221,-775.9299 -680.912,-1234.0653 -1699.879,-1141.6686 -654.573,59.3546 -1199.868,324.7073 -1597.185,777.2262 -245.946,280.1174 -298.618,419.8687 -298.618,792.3062 0,719.3012 533.062,1132.3664 1476.452,1144.0897 265.504,3.2991 627.5,-43.5211 804.437,-104.0453 z"
         id="path6111" />
      <path
         style="fill:#ffff00;fill-opacity:1;stroke:#eab40a;stroke-width:378.558;stroke-opacity:1"
         d="m 19567.89,19424.782 c -343.802,-956.514 -1479.327,-2033.029 -2513.912,-2383.271 l -461.136,-156.11 1522.439,-1716.004 c 1427.788,-1609.319 1543.565,-1716.458 1862.222,-1723.288 800.437,-17.157 2066.254,938.602 2576.392,1945.311 428.625,845.849 464.847,766.653 -1243.765,2719.329 -848.729,969.964 -1551.585,1763.571 -1561.903,1763.571 -10.317,0 -91.469,-202.292 -180.337,-449.538 z"
         id="path6150" />
      <path
         style="fill:#ffff00;fill-opacity:1;stroke:#eab40a;stroke-width:378.558;stroke-opacity:1"
         d="m 23186.707,15775.381 c 0,-255.182 -417.106,-1013.398 -804.501,-1462.421 -438.352,-508.088 -1062.949,-940.626 -1663.884,-1152.253 -256.315,-90.264 -487.352,-185.441 -513.414,-211.503 -26.062,-26.062 551.023,-714.434 1282.411,-1529.715 1199.971,-1337.612 1359.882,-1482.3291 1637.969,-1482.3291 958.99,0 2456.711,1446.3331 2757.744,2663.1251 45.869,185.403 -148.062,456.699 -1140.628,1595.658 -1579.391,1812.333 -1555.697,1788.278 -1555.697,1579.438 z"
         id="path6228" />
      <path
         style="fill:#ffff00;fill-opacity:1;stroke:#eab40a;stroke-width:378.558;stroke-opacity:1"
         d="M 27325.817,10416.624 C 26856.548,9433.0588 26078.756,8710.2423 25031.756,8284.7096 l -537.035,-218.2673 1188.336,-1326.6615 c 1485.63,-1658.5615 1567.277,-1723.881 2154.785,-1723.881 880.479,0 1874.605,673.6387 2311.278,1566.1648 431.19,881.321 377.189,1006.9193 -1208.269,2810.2482 l -1363.699,1551.0962 z"
         id="path6267" />
      <path
         style="fill:#ffff00;fill-opacity:1;stroke:#eab40a;stroke-width:378.558;stroke-opacity:1"
         d="m 15927.418,23298.313 c -523.117,-1090.34 -1264.214,-1797.155 -2344.806,-2236.341 l -534.785,-217.353 1586.074,-1769.884 1586.075,-1769.883 336.598,62.402 c 557.158,103.292 1409.999,617.283 1870.767,1127.474 474.793,525.722 876.766,1289.383 878.217,1668.423 0.672,176.687 -395.334,697.428 -1475.404,1940.112 -811.981,934.23 -1504.033,1727.53 -1537.894,1762.887 -33.861,35.358 -198.04,-220.169 -364.842,-567.837 z"
         id="path6306" />
      <path
         style="fill:#ffff00;fill-opacity:1;stroke:#eab40a;stroke-width:378.558;stroke-opacity:1"
         d="M 11642.028,28687.694 C 11257.562,27613.383 9913.3229,26426.545 8795.9793,26174.897 l -453.4333,-102.122 1520.4785,-1687.657 1520.4785,-1687.657 341.524,62.462 c 887.211,162.263 2012.915,1085.968 2490.158,2043.318 480.622,964.129 538.03,819.443 -1038.533,2617.449 l -1411.828,1610.133 z"
         id="path6666" />
    </g>
    <path
       style="fill:#00ff00;fill-opacity:1;stroke:#ecff58;stroke-width:0.195312;stroke-opacity:1"
       d="M 13.285561,17.869159 C 13.02823,17.384084 12.293844,16.861247 11.761873,16.784387 l -0.251516,-0.03634 0.231972,-0.213784 c 0.231035,-0.212921 0.233153,-0.213677 0.524396,-0.187268 0.378379,0.03431 0.842896,0.262099 1.155593,0.566675 0.23263,0.226589 0.44487,0.563786 0.44487,0.706791 0,0.03885 -0.105335,0.158832 -0.234076,0.26662 l -0.234076,0.195979 z"
       id="path6476" />
    <path
       style="fill:#00ff00;fill-opacity:1;stroke:#ecff58;stroke-width:0.195312;stroke-opacity:1"
       d="m 19.548413,12.245029 c -0.214628,-0.458371 -0.938429,-0.984613 -1.481846,-1.077382 l -0.208987,-0.03568 0.208083,-0.18799 c 0.201693,-0.182218 0.217268,-0.187378 0.507245,-0.168065 0.479478,0.03194 1.070098,0.380848 1.360172,0.803529 0.222809,0.324667 0.215696,0.403476 -0.05787,0.64117 l -0.24042,0.208895 z"
       id="path6515" />
    <path
       style="fill:#00ff00;fill-opacity:1;stroke:#ecff58;stroke-width:0.195312;stroke-opacity:1"
       d="m 16.503906,21.756756 c 0,-0.06111 1.736239,-1.738366 4.9787,-4.80957 2.738284,-2.593657 4.992009,-4.715741 5.008278,-4.715741 0.01627,0 0.02256,0.04388 0.01398,0.09751 -0.0152,0.095 -9.874733,9.521635 -9.958895,9.521635 -0.02313,0 -0.04206,-0.04222 -0.04206,-0.09383 z"
       id="path6554" />
    <path
       style="fill:#00ff00;fill-opacity:1;stroke:#ecff58;stroke-width:0.195312;stroke-opacity:1"
       d="m 13.916016,21.114951 c -2.689083,-0.943413 -2.41115,-0.831758 -2.333408,-0.93741 0.05833,-0.07927 0.230532,-0.02643 2.370029,0.727219 1.927334,0.678914 2.307129,0.827676 2.307129,0.903677 0,0.05004 -0.02747,0.08984 -0.06104,0.08846 -0.03357,-0.0014 -1.060791,-0.35326 -2.282715,-0.781948 z"
       id="path6593" />
    <path
       style="fill:#00ff00;fill-opacity:1;stroke:#ecff58;stroke-width:0.195312;stroke-opacity:1"
       d="M 7.5927735,19.089803 C 6.8408204,18.89231 6.0903281,18.69473 5.9250129,18.650737 5.710818,18.593736 5.6174148,18.543885 5.5999944,18.477269 c -0.013445,-0.05141 -0.010023,-0.09236 0.0076,-0.09099 0.017627,0.0014 0.7768519,0.193629 1.6871655,0.427246 1.4778704,0.379271 1.6594087,0.436524 1.6952039,0.534622 0.022049,0.06042 0.024317,0.107809 0.00504,0.1053 -0.019276,-0.0025 -0.650282,-0.166149 -1.4022351,-0.363642 z"
       id="path6632" />
  </g>
</svg>
