<?xml version="1.0" encoding="UTF-8" standalone="no"?>
<svg
   xmlns:dc="http://purl.org/dc/elements/1.1/"
   xmlns:cc="http://creativecommons.org/ns#"
   xmlns:rdf="http://www.w3.org/1999/02/22-rdf-syntax-ns#"
   xmlns:svg="http://www.w3.org/2000/svg"
   xmlns="http://www.w3.org/2000/svg"
   xmlns:xlink="http://www.w3.org/1999/xlink"
   xmlns:sodipodi="http://sodipodi.sourceforge.net/DTD/sodipodi-0.dtd"
   xmlns:inkscape="http://www.inkscape.org/namespaces/inkscape"
   inkscape:export-ydpi="90.000000"
   inkscape:export-xdpi="90.000000"
   inkscape:export-filename="/home/jimmac/Desktop/wi-fi.png"
   width="32"
   height="32"
   id="svg11300"
   sodipodi:version="0.32"
   inkscape:version="1.0.2 (e86c870879, 2021-01-15)"
   sodipodi:docname="plugin-show-repaint.svg"
   inkscape:output_extension="org.inkscape.output.svg.inkscape"
   sodipodi:modified="true"
   version="1.0">
  <defs
     id="defs3">
    <linearGradient
       id="linearGradient3690">
      <stop
         style="stop-color:white;stop-opacity:1;"
         offset="0"
         id="stop3692" />
      <stop
         style="stop-color:white;stop-opacity:0.46875"
         offset="1"
         id="stop3694" />
    </linearGradient>
    <linearGradient
       inkscape:collect="always"
       xlink:href="#linearGradient3690"
       id="linearGradient2374"
       gradientUnits="userSpaceOnUse"
       gradientTransform="matrix(1.1587693,0,0,1.1842215,-5.6167103,-3.0096978)"
       x1="9.5"
       y1="16.26436"
       x2="9.5"
       y2="13.408723" />
  </defs>
  <sodipodi:namedview
     stroke="#ef2929"
     fill="#eeeeec"
     id="base"
     pagecolor="#ffffff"
     bordercolor="#666666"
     borderopacity="0.25490196"
     inkscape:pageopacity="0.0"
     inkscape:pageshadow="2"
     inkscape:zoom="18.296388"
     inkscape:cx="8.2158758"
     inkscape:cy="15.845411"
     inkscape:current-layer="layer1"
     showgrid="false"
     inkscape:grid-bbox="true"
     inkscape:document-units="px"
     inkscape:showpageshadow="false"
     inkscape:window-width="1920"
     inkscape:window-height="1052"
     inkscape:window-x="0"
     inkscape:window-y="0"
     showguides="true"
     inkscape:guide-bbox="true"
     inkscape:window-maximized="1"
     inkscape:document-rotation="0">
    <inkscape:grid
       type="xygrid"
       id="grid7889"
       empspacing="5"
       visible="true"
       enabled="true" />
  </sodipodi:namedview>
  <metadata
     id="metadata4">
    <rdf:RDF>
      <cc:Work
         rdf:about="">
        <dc:format>image/svg+xml</dc:format>
        <dc:type
           rdf:resource="http://purl.org/dc/dcmitype/StillImage" />
        <dc:creator>
          <cc:Agent>
            <dc:title>Patrick Niklaus</dc:title>
          </cc:Agent>
        </dc:creator>
        <dc:source />
        <cc:license
           rdf:resource="http://creativecommons.org/licenses/GPL/2.0/" />
        <dc:title></dc:title>
        <dc:subject>
          <rdf:Bag />
        </dc:subject>
      </cc:Work>
      <cc:License
         rdf:about="http://creativecommons.org/licenses/GPL/2.0/">
        <cc:permits
           rdf:resource="http://web.resource.org/cc/Reproduction" />
        <cc:permits
           rdf:resource="http://web.resource.org/cc/Distribution" />
        <cc:requires
           rdf:resource="http://web.resource.org/cc/Notice" />
        <cc:permits
           rdf:resource="http://web.resource.org/cc/DerivativeWorks" />
        <cc:requires
           rdf:resource="http://web.resource.org/cc/ShareAlike" />
        <cc:requires
           rdf:resource="http://web.resource.org/cc/SourceCode" />
      </cc:License>
    </rdf:RDF>
  </metadata>
  <g
     id="layer1"
     inkscape:label="Layer 1"
     inkscape:groupmode="layer">
    <rect
       style="fill:#f1ca03;fill-opacity:1;stroke:#888a85;stroke-width:0.93329018;stroke-miterlimit:4;stroke-dasharray:none;stroke-opacity:1"
       id="rect8015"
       width="26.658609"
       height="25.779047"
       x="2.6321931"
       y="3.7284126"
       rx="1.8385248"
       ry="1.9685262" />
    <rect
       style="opacity:0.8;fill:none;stroke:url(#linearGradient2374);stroke-width:0.93329084;stroke-miterlimit:4;stroke-dasharray:none;stroke-opacity:1"
       id="rect8019"
       width="24.858728"
       height="24.626682"
       x="3.5395958"
       y="4.304595"
       rx="1.38902"
       ry="1.4839072" />
    <g
       transform="matrix(0.00179567,0,0,-0.00179567,4.4798907,27.465086)"
       fill="#000000"
       stroke="none"
       id="g931"
       style="fill:#8282ff;fill-opacity:1">
      <path
         d="m 6900,12074 c -19,-3 -73,-14 -119,-25 -382,-94 -727,-423 -827,-789 -13,-46 -18,-101 -18,-190 0,-114 4,-139 43,-290 79,-310 134,-483 311,-985 76,-214 156,-448 179,-519 73,-227 99,-405 68,-466 -27,-54 -113,-72 -229,-50 -156,31 -168,38 -197,114 -54,146 -53,450 4,766 29,162 13,241 -63,319 -72,74 -136,94 -282,88 -138,-5 -245,-34 -397,-107 -137,-65 -227,-125 -317,-210 -122,-116 -168,-204 -168,-322 0,-138 81,-241 328,-419 172,-124 244,-195 244,-240 0,-33 -39,-116 -78,-166 -42,-56 -129,-90 -266,-104 -65,-6 -139,-9 -165,-6 -166,20 -352,159 -573,428 -119,146 -167,212 -408,569 -363,537 -497,701 -658,805 -218,140 -492,215 -787,215 -206,0 -374,-34 -522,-106 -215,-104 -323,-280 -292,-477 57,-355 409,-755 953,-1082 319,-192 673,-339 1151,-480 233,-68 390,-141 453,-209 56,-60 60,-84 28,-149 -39,-79 -95,-138 -271,-284 -204,-170 -335,-238 -481,-250 l -61,-6 -5,59 c -5,76 -39,143 -100,200 -90,84 -202,120 -354,112 -76,-4 -104,-11 -159,-36 -88,-42 -135,-80 -180,-147 -109,-165 -97,-327 30,-412 31,-20 109,-53 183,-78 227,-75 279,-117 289,-233 6,-69 -20,-203 -43,-223 -20,-16 -97,-14 -173,6 -167,43 -448,200 -713,398 -217,163 -350,279 -584,512 -168,168 -238,230 -293,263 C 1062,8056 688,7991 394,7695 222,7522 100,7280 55,7025 37,6921 34,6705 50,6603 c 87,-553 486,-930 1150,-1087 197,-47 326,-60 585,-60 312,-1 428,18 695,111 233,82 343,107 475,107 99,1 116,-2 160,-24 74,-38 101,-97 116,-257 11,-113 10,-125 -7,-158 -11,-19 -45,-55 -78,-79 -119,-89 -1069,-576 -1211,-620 -178,-57 -398,-89 -720,-106 C 796,4408 620,4375 424,4285 127,4148 -26,3891 8,3584 c 20,-185 117,-425 240,-598 71,-100 237,-269 317,-323 396,-266 807,-201 1319,211 50,41 161,138 247,217 86,79 208,191 270,248 63,57 220,208 349,336 259,255 291,278 416,296 81,12 224,4 309,-18 210,-52 384,-220 457,-438 20,-60 23,-90 23,-210 v -140 l -44,-65 c -89,-130 -173,-223 -561,-615 -218,-220 -433,-445 -479,-500 -427,-514 -460,-924 -104,-1278 219,-218 539,-378 784,-394 414,-27 705,306 833,952 48,243 67,409 86,755 13,230 23,315 51,430 41,163 131,304 232,363 84,49 142,62 282,62 154,0 204,-9 480,-87 179,-51 306,-84 579,-151 43,-10 51,-16 67,-52 40,-87 29,-136 -136,-635 -197,-598 -240,-795 -240,-1105 0,-182 1,-194 29,-275 80,-242 217,-411 401,-500 106,-51 170,-65 290,-64 302,1 577,189 784,536 100,167 141,298 141,456 0,181 -31,276 -204,619 -57,114 -130,271 -161,348 -32,77 -93,217 -137,310 -105,222 -104,220 -72,266 42,60 206,135 423,193 183,49 259,60 426,60 148,1 163,-1 202,-22 49,-26 50,-28 57,-177 19,-405 222,-602 736,-711 125,-26 276,-25 364,4 181,60 307,205 362,417 14,54 18,107 18,235 0,257 -37,378 -150,494 -78,80 -161,131 -364,225 -253,118 -312,157 -351,232 -25,51 -24,62 11,102 109,125 556,235 968,240 145,2 148,2 195,-26 134,-79 303,-280 592,-707 294,-433 339,-489 466,-565 221,-135 591,-176 943,-104 205,41 421,128 567,226 166,110 308,278 349,409 28,92 27,239 -1,348 -108,409 -553,893 -1057,1150 -240,121 -424,171 -637,170 -114,0 -144,-4 -250,-33 -349,-94 -617,-18 -884,251 -96,97 -252,305 -298,396 -24,50 -25,57 -15,103 29,126 166,268 258,269 12,0 59,-20 106,-45 286,-152 702,-93 876,125 107,132 145,267 117,406 -26,127 -75,214 -180,320 -78,79 -104,98 -185,137 -197,94 -399,103 -560,24 -51,-25 -120,-90 -170,-162 -19,-27 -42,-51 -51,-53 -47,-9 -182,148 -258,298 -70,140 -78,254 -25,366 38,83 161,204 297,292 140,91 368,208 445,227 128,33 231,-5 567,-210 298,-181 503,-245 754,-232 235,12 448,94 726,280 297,199 477,419 535,657 19,76 17,230 -4,309 -79,295 -371,557 -779,700 -185,65 -421,94 -572,71 -249,-37 -560,-194 -925,-465 -147,-110 -262,-203 -595,-485 -354,-299 -418,-351 -520,-422 -96,-66 -156,-98 -187,-98 -137,0 -277,365 -244,633 12,91 32,110 181,171 393,160 603,274 704,381 85,90 118,192 100,307 -12,76 -76,239 -125,319 -138,228 -366,369 -594,369 -143,0 -256,-45 -350,-140 -104,-105 -148,-220 -159,-412 l -7,-128 -44,-46 c -181,-185 -691,-283 -917,-177 -201,94 -383,436 -400,748 -7,137 -2,156 121,500 104,289 144,420 184,605 24,114 27,144 26,340 0,248 -11,307 -88,465 -115,235 -311,367 -558,379 -51,2 -109,2 -128,0 z"
         id="path929"
         style="fill:#8282ff;fill-opacity:1" />
    </g>
  </g>
</svg>
