<?xml version="1.0" encoding="UTF-8" standalone="no"?>
<svg
   xmlns:dc="http://purl.org/dc/elements/1.1/"
   xmlns:cc="http://creativecommons.org/ns#"
   xmlns:rdf="http://www.w3.org/1999/02/22-rdf-syntax-ns#"
   xmlns:svg="http://www.w3.org/2000/svg"
   xmlns="http://www.w3.org/2000/svg"
   xmlns:xlink="http://www.w3.org/1999/xlink"
   xmlns:sodipodi="http://sodipodi.sourceforge.net/DTD/sodipodi-0.dtd"
   xmlns:inkscape="http://www.inkscape.org/namespaces/inkscape"
   inkscape:export-ydpi="90.000000"
   inkscape:export-xdpi="90.000000"
   inkscape:export-filename="/home/jimmac/Desktop/wi-fi.png"
   width="32"
   height="32"
   id="svg11300"
   sodipodi:version="0.32"
   inkscape:version="1.0.2 (e86c870879, 2021-01-15)"
   sodipodi:docname="plugin-preserve-output.svg"
   inkscape:output_extension="org.inkscape.output.svg.inkscape"
   sodipodi:modified="true"
   version="1.0">
  <defs
     id="defs3">
    <linearGradient
       id="linearGradient3690">
      <stop
         style="stop-color:white;stop-opacity:1;"
         offset="0"
         id="stop3692" />
      <stop
         style="stop-color:white;stop-opacity:0.46875"
         offset="1"
         id="stop3694" />
    </linearGradient>
    <linearGradient
       inkscape:collect="always"
       xlink:href="#linearGradient3690"
       id="linearGradient2374"
       gradientUnits="userSpaceOnUse"
       gradientTransform="matrix(1.1587693,0,0,1.1842215,-5.6167103,-3.0096978)"
       x1="9.5"
       y1="16.26436"
       x2="9.5"
       y2="13.408723" />
  </defs>
  <sodipodi:namedview
     stroke="#ef2929"
     fill="#eeeeec"
     id="base"
     pagecolor="#ffffff"
     bordercolor="#666666"
     borderopacity="0.25490196"
     inkscape:pageopacity="0.0"
     inkscape:pageshadow="2"
     inkscape:zoom="25.3125"
     inkscape:cx="16"
     inkscape:cy="16"
     inkscape:current-layer="layer1"
     showgrid="false"
     inkscape:grid-bbox="true"
     inkscape:document-units="px"
     inkscape:showpageshadow="false"
     inkscape:window-width="1920"
     inkscape:window-height="1052"
     inkscape:window-x="0"
     inkscape:window-y="0"
     showguides="true"
     inkscape:guide-bbox="true"
     inkscape:window-maximized="1"
     inkscape:document-rotation="0">
    <inkscape:grid
       type="xygrid"
       id="grid7889"
       empspacing="5"
       visible="true"
       enabled="true" />
  </sodipodi:namedview>
  <metadata
     id="metadata4">
    <rdf:RDF>
      <cc:Work
         rdf:about="">
        <dc:format>image/svg+xml</dc:format>
        <dc:type
           rdf:resource="http://purl.org/dc/dcmitype/StillImage" />
        <dc:creator>
          <cc:Agent>
            <dc:title>Patrick Niklaus</dc:title>
          </cc:Agent>
        </dc:creator>
        <dc:source />
        <cc:license
           rdf:resource="http://creativecommons.org/licenses/GPL/2.0/" />
        <dc:title></dc:title>
        <dc:subject>
          <rdf:Bag />
        </dc:subject>
      </cc:Work>
      <cc:License
         rdf:about="http://creativecommons.org/licenses/GPL/2.0/">
        <cc:permits
           rdf:resource="http://web.resource.org/cc/Reproduction" />
        <cc:permits
           rdf:resource="http://web.resource.org/cc/Distribution" />
        <cc:requires
           rdf:resource="http://web.resource.org/cc/Notice" />
        <cc:permits
           rdf:resource="http://web.resource.org/cc/DerivativeWorks" />
        <cc:requires
           rdf:resource="http://web.resource.org/cc/ShareAlike" />
        <cc:requires
           rdf:resource="http://web.resource.org/cc/SourceCode" />
      </cc:License>
    </rdf:RDF>
  </metadata>
  <g
     id="layer1"
     inkscape:label="Layer 1"
     inkscape:groupmode="layer">
    <rect
       style="fill:#8282ff;fill-opacity:1;stroke:#888a85;stroke-width:0.93329018;stroke-miterlimit:4;stroke-dasharray:none;stroke-opacity:1"
       id="rect8015"
       width="26.658609"
       height="25.779047"
       x="2.6321931"
       y="3.7284126"
       rx="1.8385248"
       ry="1.9685262" />
    <rect
       style="opacity:0.8;fill:none;stroke:url(#linearGradient2374);stroke-width:0.93329084;stroke-miterlimit:4;stroke-dasharray:none;stroke-opacity:1"
       id="rect8019"
       width="24.858728"
       height="24.626682"
       x="3.5395958"
       y="4.304595"
       rx="1.38902"
       ry="1.4839072" />
    <g
       id="g1505"
       transform="matrix(0.03378831,0,0,0.03378831,7.3192709,11.099123)">
      <path
         d="M 322.691,29.554 H 189.307 l 43.872,466.458 h 45.64 z"
         fill="#a95e2c"
         id="path904" />
      <path
         d="M 233.179,186.895 189.307,29.554 C 184.759,13.243 167.665,3.884 151.473,8.841 L 105.141,23.024 C 91.336,27.249 82.47,40.676 84.006,55.031 l 6.126,57.264 c 2.625,24.539 -8.988,48.418 -29.903,61.519 -0.207,0.13 -0.415,0.26 -0.622,0.389 -17.741,11.09 -29.04,30.113 -30.166,51.005 -4.183,77.629 -4.176,155.258 0.022,232.887 1.224,22.632 18.848,40.895 41.392,43.227 54.108,5.597 108.216,3.826 162.324,-5.312 7.382,-103.037 7.382,-206.076 0,-309.115 z"
         fill="#fcb143"
         id="path906" />
      <path
         d="m 160.203,503.859 c -29.786,1.394 -59.561,0.541 -89.347,-2.538 -22.545,-2.33 -40.169,-20.589 -41.396,-43.228 -4.193,-77.622 -4.203,-155.255 -0.021,-232.887 1.123,-20.891 12.422,-39.909 30.171,-50.999 0.208,-0.135 0.416,-0.26 0.614,-0.395 20.922,-13.098 32.532,-36.975 29.911,-61.517 L 84.007,55.033 c -1.54,-14.357 7.324,-27.788 21.13,-32.012 l 29.37,-8.989 11.049,98.263 c 2.622,24.542 -8.989,48.419 -29.911,61.517 -0.208,0.135 -0.406,0.26 -0.614,0.395 -17.749,11.09 -29.047,30.108 -30.171,50.999 -4.182,77.633 -4.172,155.265 0.021,232.887 1.228,22.639 18.852,40.897 41.396,43.228 11.309,1.165 22.618,2.018 33.926,2.538 z"
         fill="#fa9801"
         id="path908" />
      <path
         d="M 278.819,186.895 322.691,29.554 c 4.548,-16.311 21.642,-25.67 37.834,-20.713 l 46.332,14.183 c 13.805,4.226 22.671,17.653 21.135,32.008 l -6.126,57.264 c -2.625,24.539 8.988,48.418 29.903,61.519 0.207,0.13 0.415,0.26 0.622,0.389 17.741,11.09 29.04,30.113 30.166,51.005 4.183,77.629 4.176,155.258 -0.022,232.887 -1.224,22.632 -18.848,40.895 -41.392,43.227 -54.108,5.597 -108.216,3.826 -162.324,-5.312 -7.382,-103.038 -7.382,-206.077 0,-309.116 z"
         fill="#fcb143"
         id="path910" />
      <path
         d="M 489.784,377.765 H 22.215 c -3.57,0 -6.464,2.894 -6.464,6.464 v 26.299 c 0,3.57 2.894,6.464 6.464,6.464 h 467.569 c 3.57,0 6.464,-2.894 6.464,-6.464 V 384.23 c 0,-3.571 -2.894,-6.465 -6.464,-6.465 z"
         fill="#695e66"
         id="path912" />
      <path
         d="M 331.121,361.79 H 180.877 c -7.369,0 -13.342,5.973 -13.342,13.342 v 44.494 c 0,7.369 5.973,13.342 13.342,13.342 h 150.245 c 7.369,0 13.342,-5.973 13.342,-13.342 v -44.494 c 0,-7.369 -5.974,-13.342 -13.343,-13.342 z"
         fill="#453e43"
         id="path914" />
      <path
         d="M 86.839,416.989 H 22.211 c -3.569,0 -6.461,-2.892 -6.461,-6.461 v -26.301 c 0,-3.569 2.892,-6.461 6.461,-6.461 h 64.628 c -3.569,0 -6.461,2.892 -6.461,6.461 v 26.301 c 0,3.569 2.892,6.461 6.461,6.461 z"
         fill="#453e43"
         id="path916" />
      <path
         d="M 489.784,238.717 H 22.215 c -3.57,0 -6.464,2.894 -6.464,6.464 v 26.299 c 0,3.57 2.894,6.464 6.464,6.464 h 467.569 c 3.57,0 6.464,-2.894 6.464,-6.464 v -26.299 c 0,-3.569 -2.894,-6.464 -6.464,-6.464 z"
         fill="#695e66"
         id="path918" />
      <path
         d="M 86.839,277.943 H 22.211 c -3.569,0 -6.461,-2.892 -6.461,-6.461 v -26.301 c 0,-3.569 2.892,-6.461 6.461,-6.461 h 64.628 c -3.569,0 -6.461,2.892 -6.461,6.461 v 26.301 c 0,3.569 2.892,6.461 6.461,6.461 z"
         fill="#453e43"
         id="path920" />
      <path
         d="M 331.121,222.742 H 180.877 c -7.369,0 -13.342,5.973 -13.342,13.342 v 44.494 c 0,7.369 5.973,13.342 13.342,13.342 h 150.245 c 7.369,0 13.342,-5.973 13.342,-13.342 v -44.494 c 0,-7.368 -5.974,-13.342 -13.343,-13.342 z"
         fill="#453e43"
         id="path922" />
      <path
         d="m 503.744,271.48 v -26.301 c 0,-7.503 -5.953,-13.625 -13.382,-13.932 -0.109,-2.148 -0.21,-4.295 -0.325,-6.446 -1.246,-23.243 -13.813,-44.518 -33.619,-56.924 -0.229,-0.147 -0.464,-0.294 -0.669,-0.42 -18.351,-11.497 -28.722,-32.837 -26.424,-54.365 l 6.131,-57.264 c 1.907,-17.902 -9.197,-34.715 -26.402,-39.976 l -46.33,-14.18 c -9.784,-2.996 -20.113,-1.94 -29.084,2.971 -8.972,4.911 -15.427,13.042 -18.176,22.896 l -0.299,1.074 h -118.34 l -0.299,-1.072 C 193.786,17.696 187.339,9.569 178.375,4.656 169.4,-0.262 159.067,-1.323 149.276,1.671 L 102.948,15.85 C 85.734,21.114 74.634,37.929 76.553,55.831 l 1.98,18.49 c 0.441,4.118 4.138,7.099 8.256,6.659 4.119,-0.441 7.1,-4.137 6.659,-8.256 L 91.468,54.233 C 90.314,43.469 96.987,33.359 107.336,30.194 l 46.328,-14.179 c 5.888,-1.8 12.104,-1.163 17.502,1.796 5.388,2.953 9.263,7.837 10.91,13.756 l 43.668,156.624 c 0.651,9.081 1.239,18.143 1.76,27.051 h -46.627 c -9.815,0 -18.045,6.827 -20.245,15.976 H 36.645 c 0.095,-1.871 0.183,-3.742 0.282,-5.614 0.986,-18.392 10.951,-35.229 26.626,-45.023 0.239,-0.148 0.478,-0.296 0.707,-0.445 23.157,-14.535 36.237,-41.471 33.325,-68.639 l -0.96,-9 c -0.439,-4.119 -4.138,-7.102 -8.253,-6.662 -4.119,0.439 -7.102,4.135 -6.662,8.253 l 0.96,9.004 c 2.307,21.524 -8.065,42.864 -26.424,54.365 -0.037,0.023 -0.074,0.047 -0.111,0.071 -0.152,0.099 -0.313,0.198 -0.501,0.314 -19.845,12.399 -32.438,33.692 -33.685,56.963 -0.114,2.149 -0.215,4.296 -0.324,6.443 -7.427,0.315 -13.376,6.433 -13.376,13.931 v 26.301 c 0,6.786 4.874,12.451 11.306,13.699 -0.737,28.397 -0.917,57.075 -0.535,85.472 -6.164,1.452 -10.77,6.98 -10.77,13.577 v 26.3 c 0,7.08 5.306,12.932 12.15,13.828 0.436,11.368 0.959,22.818 1.571,34.144 1.434,26.403 21.671,47.551 48.117,50.283 20.68,2.141 41.459,3.209 62.273,3.209 33.861,0 67.795,-2.833 101.426,-8.48 h 44.417 c 33.627,5.644 67.558,8.476 101.437,8.476 20.809,0 41.598,-1.067 62.281,-3.204 26.458,-2.735 46.687,-23.885 48.098,-50.286 0.624,-11.572 1.15,-23.009 1.579,-34.137 6.841,-0.895 12.145,-6.752 12.145,-13.838 v -26.3 c 0,-6.596 -4.603,-12.124 -10.762,-13.576 0.386,-28.244 0.206,-56.921 -0.536,-85.468 6.426,-1.246 11.298,-6.912 11.298,-13.699 z m -25.761,98.782 H 419.76 c -4.143,0 -7.5,3.358 -7.5,7.5 0,4.142 3.357,7.5 7.5,7.5 h 68.98 v 24.23 H 351.964 v -24.23 h 37.837 c 4.143,0 7.5,-3.358 7.5,-7.5 0,-4.142 -3.357,-7.5 -7.5,-7.5 h -38.435 c -2.202,-9.147 -10.431,-15.973 -20.244,-15.973 h -50.286 c -0.101,-17.59 0.014,-35.299 0.342,-52.87 h 49.945 c 9.816,0 18.047,-6.829 20.246,-15.98 h 126.077 c 0.738,28.333 0.918,56.792 0.537,84.823 z m -207.205,118.25 h -29.582 c 1.087,-15.967 2.003,-32.054 2.734,-48.043 h 24.119 c 0.715,15.718 1.629,31.817 2.729,48.043 z m -89.901,-63.044 c -3.221,0 -5.842,-2.621 -5.842,-5.842 v -44.494 c 0,-3.221 2.621,-5.842 5.842,-5.842 h 150.245 c 3.221,0 5.842,2.621 5.842,5.842 v 44.494 c 0,3.222 -2.621,5.842 -5.842,5.842 z M 23.248,409.488 v -24.222 h 136.787 v 24.222 z M 34.552,285.44 h 126.079 c 2.199,9.151 10.43,15.98 20.246,15.98 h 49.948 c 0.328,17.574 0.442,35.283 0.342,52.87 h -50.289 c -9.815,0 -18.045,6.827 -20.245,15.976 H 34.015 C 33.638,342.083 33.818,313.622 34.552,285.44 Z M 160.035,246.218 V 270.44 H 23.248 v -24.222 z m 85.792,55.202 h 20.348 c -0.326,17.572 -0.439,35.28 -0.34,52.87 h -19.669 c 0.1,-17.587 -0.014,-35.294 -0.339,-52.87 z M 488.744,246.218 V 270.44 H 351.964 V 246.218 Z M 340.842,17.8 c 5.395,-2.953 11.607,-3.587 17.491,-1.785 l 46.332,14.18 c 10.347,3.164 17.022,13.275 15.876,24.04 l -6.131,57.262 c -2.903,27.195 10.197,54.15 33.414,68.696 0.159,0.098 0.317,0.195 0.468,0.293 0.039,0.026 0.08,0.052 0.12,0.077 15.699,9.813 25.66,26.652 26.646,45.039 0.1,1.874 0.187,3.745 0.282,5.616 H 351.367 c -2.2,-9.149 -10.43,-15.976 -20.245,-15.976 h -46.628 c 0.515,-8.817 1.101,-17.878 1.752,-27.053 L 329.913,31.568 c 1.652,-5.925 5.534,-10.815 10.929,-13.768 z M 240.651,186.364 c -0.036,-0.5 -0.122,-0.994 -0.256,-1.476 L 201.007,43.613 h 109.976 l -39.389,141.276 c -0.135,0.484 -0.221,0.98 -0.257,1.481 -0.698,9.801 -1.321,19.473 -1.866,28.872 h -26.943 c -0.552,-9.504 -1.178,-19.181 -1.877,-28.878 z m -59.774,43.878 h 54.548 0.01 0.018 95.669 c 3.221,0 5.842,2.621 5.842,5.842 v 44.494 c 0,3.221 -2.621,5.842 -5.842,5.842 H 180.877 c -3.221,0 -5.842,-2.621 -5.842,-5.842 v -44.494 c 0,-3.221 2.621,-5.842 5.842,-5.842 z M 71.629,493.863 c -19.064,-1.97 -33.65,-17.184 -34.682,-36.174 -0.595,-11.012 -1.106,-22.144 -1.533,-33.201 h 125.217 c 2.199,9.151 10.43,15.98 20.246,15.98 h 48.041 c -0.753,16.344 -1.688,32.8 -2.814,49.103 -51.287,8.15 -103.225,9.596 -154.475,4.292 z m 368.749,0 c -51.283,5.298 -103.226,3.853 -154.492,-4.292 -1.14,-16.59 -2.074,-33.034 -2.81,-49.103 h 48.046 c 9.814,0 18.044,-6.827 20.245,-15.976 h 125.215 c -0.421,10.827 -0.935,21.949 -1.542,33.2 -1.016,18.988 -15.593,34.199 -34.662,36.171 z"
         id="path924" />
    </g>
    <polygon
       points="166.74,230.55 43.3,230.55 149.65,115.09 256,0 362.35,115.09 468.7,230.55 338.04,230.55 338.04,512 166.74,512 "
       fill="#434040"
       id="polygon1602"
       transform="matrix(0.01981747,0,0,0.01981747,10.947239,5.2220528)"
       style="fill:#000000;fill-opacity:1" />
  </g>
</svg>
