<?xml version="1.0" encoding="UTF-8" standalone="no"?>
<svg
   inkscape:export-ydpi="90.000000"
   inkscape:export-xdpi="90.000000"
   inkscape:export-filename="/home/jimmac/Desktop/wi-fi.png"
   width="32"
   height="32"
   id="svg11300"
   sodipodi:version="0.32"
   inkscape:version="1.1 (c68e22c387, 2021-05-23)"
   sodipodi:docname="reeed.svg"
   inkscape:output_extension="org.inkscape.output.svg.inkscape"
   sodipodi:modified="true"
   version="1.0"
   xmlns:inkscape="http://www.inkscape.org/namespaces/inkscape"
   xmlns:sodipodi="http://sodipodi.sourceforge.net/DTD/sodipodi-0.dtd"
   xmlns:xlink="http://www.w3.org/1999/xlink"
   xmlns="http://www.w3.org/2000/svg"
   xmlns:svg="http://www.w3.org/2000/svg"
   xmlns:rdf="http://www.w3.org/1999/02/22-rdf-syntax-ns#"
   xmlns:cc="http://creativecommons.org/ns#"
   xmlns:dc="http://purl.org/dc/elements/1.1/">
  <defs
     id="defs3">
    <linearGradient
       id="linearGradient3690">
      <stop
         style="stop-color:white;stop-opacity:1;"
         offset="0"
         id="stop3692" />
      <stop
         style="stop-color:white;stop-opacity:0.46875"
         offset="1"
         id="stop3694" />
    </linearGradient>
    <linearGradient
       id="linearGradient2781">
      <stop
         style="stop-color:#d3d7cf;stop-opacity:1"
         offset="0"
         id="stop2783" />
      <stop
         style="stop-color:#eeeeec;stop-opacity:1"
         offset="1"
         id="stop2785" />
    </linearGradient>
    <linearGradient
       y2="19.53867"
       x2="24.925514"
       y1="40.000107"
       x1="24.925514"
       gradientTransform="matrix(0.45723864,0,0,0.46287967,4.1781326,13.561207)"
       gradientUnits="userSpaceOnUse"
       id="linearGradient8035"
       xlink:href="#linearGradient2781"
       inkscape:collect="always" />
    <linearGradient
       y2="13.408723"
       x2="9.5"
       y1="16.26436"
       x1="9.5"
       gradientTransform="matrix(0.46308415,0,0,0.47325573,4.0314647,13.186025)"
       gradientUnits="userSpaceOnUse"
       id="linearGradient8029"
       xlink:href="#linearGradient3690"
       inkscape:collect="always" />
    <linearGradient
       inkscape:collect="always"
       xlink:href="#linearGradient2781"
       id="linearGradient2370"
       gradientUnits="userSpaceOnUse"
       gradientTransform="matrix(1.1441422,0,0,1.1582577,-5.2497049,-2.4640201)"
       x1="24.925514"
       y1="40.000107"
       x2="24.925514"
       y2="19.53867" />
    <linearGradient
       inkscape:collect="always"
       xlink:href="#linearGradient3690"
       id="linearGradient2374"
       gradientUnits="userSpaceOnUse"
       gradientTransform="matrix(1.1587693,0,0,1.1842215,-5.6167103,-3.4028338)"
       x1="9.5"
       y1="16.26436"
       x2="9.5"
       y2="13.408723" />
    <linearGradient
       inkscape:collect="always"
       xlink:href="#linearGradient2781"
       id="linearGradient1042"
       gradientUnits="userSpaceOnUse"
       gradientTransform="matrix(0.45723864,0,0,0.46287967,8.5994123,10.857643)"
       x1="24.925514"
       y1="40.000107"
       x2="24.925514"
       y2="19.53867" />
    <linearGradient
       inkscape:collect="always"
       xlink:href="#linearGradient3690"
       id="linearGradient1044"
       gradientUnits="userSpaceOnUse"
       gradientTransform="matrix(0.46308415,0,0,0.47325573,8.4527447,10.482461)"
       x1="9.5"
       y1="16.26436"
       x2="9.5"
       y2="13.408723" />
    <linearGradient
       inkscape:collect="always"
       xlink:href="#linearGradient2781"
       id="linearGradient1069"
       gradientUnits="userSpaceOnUse"
       gradientTransform="matrix(0.45723864,0,0,0.46287967,11.972655,7.974238)"
       x1="24.925514"
       y1="40.000107"
       x2="24.925514"
       y2="19.53867" />
    <linearGradient
       inkscape:collect="always"
       xlink:href="#linearGradient3690"
       id="linearGradient1071"
       gradientUnits="userSpaceOnUse"
       gradientTransform="matrix(0.46308415,0,0,0.47325573,11.825987,7.599056)"
       x1="9.5"
       y1="16.26436"
       x2="9.5"
       y2="13.408723" />
  </defs>
  <sodipodi:namedview
     stroke="#ef2929"
     fill="#eeeeec"
     id="base"
     pagecolor="#000000"
     bordercolor="#666666"
     borderopacity="0.25490196"
     inkscape:pageopacity="0"
     inkscape:pageshadow="2"
     inkscape:zoom="25.3125"
     inkscape:cx="8.1382716"
     inkscape:cy="16.019753"
     inkscape:current-layer="layer1"
     showgrid="false"
     inkscape:grid-bbox="true"
     inkscape:document-units="px"
     inkscape:showpageshadow="false"
     inkscape:window-width="1920"
     inkscape:window-height="1044"
     inkscape:window-x="0"
     inkscape:window-y="0"
     showguides="true"
     inkscape:guide-bbox="true"
     inkscape:window-maximized="1"
     inkscape:document-rotation="0"
     inkscape:pagecheckerboard="0">
    <inkscape:grid
       type="xygrid"
       id="grid7889"
       empspacing="5"
       visible="true"
       enabled="true" />
  </sodipodi:namedview>
  <metadata
     id="metadata4">
    <rdf:RDF>
      <cc:Work
         rdf:about="">
        <dc:format>image/svg+xml</dc:format>
        <dc:type
           rdf:resource="http://purl.org/dc/dcmitype/StillImage" />
        <dc:creator>
          <cc:Agent>
            <dc:title>Patrick Niklaus</dc:title>
          </cc:Agent>
        </dc:creator>
        <dc:source />
        <cc:license
           rdf:resource="http://creativecommons.org/licenses/GPL/2.0/" />
        <dc:subject>
          <rdf:Bag />
        </dc:subject>
      </cc:Work>
      <cc:License
         rdf:about="http://creativecommons.org/licenses/GPL/2.0/">
        <cc:permits
           rdf:resource="http://web.resource.org/cc/Reproduction" />
        <cc:permits
           rdf:resource="http://web.resource.org/cc/Distribution" />
        <cc:requires
           rdf:resource="http://web.resource.org/cc/Notice" />
        <cc:permits
           rdf:resource="http://web.resource.org/cc/DerivativeWorks" />
        <cc:requires
           rdf:resource="http://web.resource.org/cc/ShareAlike" />
        <cc:requires
           rdf:resource="http://web.resource.org/cc/SourceCode" />
      </cc:License>
    </rdf:RDF>
  </metadata>
  <g
     id="layer1"
     inkscape:label="Layer 1"
     inkscape:groupmode="layer">
    <rect
       ry="1.9685262"
       rx="1.8385248"
       y="3.7284126"
       x="2.6321931"
       height="25.779047"
       width="26.658609"
       id="rect8015"
       style="fill:url(#linearGradient2370);fill-opacity:1;stroke:#888a85;stroke-width:0.93329;stroke-miterlimit:4;stroke-dasharray:none;stroke-opacity:1" />
    <g
       id="g139"
       transform="translate(1.3245105,-4.1174093)">
      <rect
         ry="0.78669089"
         rx="0.73473781"
         y="10.448937"
         x="15.122533"
         height="10.302195"
         width="10.653699"
         id="rect8015-2-7-0-7"
         style="fill:url(#linearGradient1069);fill-opacity:1;stroke:#888a85;stroke-width:0.372975;stroke-miterlimit:4;stroke-dasharray:none;stroke-opacity:1" />
      <path
         sodipodi:nodetypes="cccccc"
         id="path8017-6-4-9-0"
         d="m 15.122534,12.252776 v -1.346992 c 0,-0.422755 0.287972,-0.763097 0.645677,-0.763097 h 9.362332 c 0.357704,0 0.645677,0.340342 0.645677,0.763097 v 1.346992"
         style="opacity:0.5;fill:#0696d6;fill-opacity:1;stroke:#204a87;stroke-width:0.372975;stroke-miterlimit:4;stroke-opacity:1"
         inkscape:connector-curvature="0" />
      <rect
         ry="0.5930205"
         rx="0.55510026"
         y="10.522091"
         x="15.485163"
         height="9.841671"
         width="9.9344044"
         id="rect8019-1-5-1-9"
         style="opacity:0.52;fill:none;stroke:url(#linearGradient1071);stroke-width:0.372975;stroke-miterlimit:4;stroke-dasharray:none;stroke-opacity:1" />
    </g>
    <rect
       ry="1.4839072"
       rx="1.38902"
       y="3.911459"
       x="3.5395958"
       height="24.626682"
       width="24.858728"
       id="rect8019"
       style="opacity:0.8;fill:none;stroke:url(#linearGradient2374);stroke-width:0.933291;stroke-miterlimit:4;stroke-dasharray:none;stroke-opacity:1" />
    <g
       id="g144"
       transform="matrix(1.110576,0,0,1.110576,-7.3918952,-5.4303591)">
      <rect
         ry="0.78669089"
         rx="0.73473781"
         y="13.332352"
         x="11.749291"
         height="10.302195"
         width="10.653699"
         id="rect8015-2-7-0-3"
         style="fill:url(#linearGradient1042);fill-opacity:1;stroke:#888a85;stroke-width:0.372975;stroke-miterlimit:4;stroke-dasharray:none;stroke-opacity:1" />
      <path
         sodipodi:nodetypes="cccccc"
         id="path8017-6-4-9-5"
         d="m 11.749291,15.136188 v -1.346995 c 0,-0.422757 0.287972,-0.7631 0.645678,-0.7631 h 9.362332 c 0.357704,0 0.645677,0.340343 0.645677,0.7631 v 1.346995"
         style="opacity:0.5;fill:#0696d6;fill-opacity:1;stroke:#204a87;stroke-width:0.372975;stroke-miterlimit:4;stroke-opacity:1"
         inkscape:connector-curvature="0" />
      <rect
         ry="0.5930205"
         rx="0.55510026"
         y="13.405504"
         x="12.111921"
         height="9.841671"
         width="9.9344044"
         id="rect8019-1-5-1-6"
         style="opacity:0.52;fill:none;stroke:url(#linearGradient1044);stroke-width:0.372975;stroke-miterlimit:4;stroke-dasharray:none;stroke-opacity:1" />
    </g>
    <path
       sodipodi:nodetypes="cccccccsc"
       id="path3669-6"
       d="m 8.3124473,11.142862 c 0.944904,0.873675 1.8898087,1.747348 2.8347127,2.621022 -0.390325,0.14223 -0.78065,0.284459 -1.1709763,0.426689 0.2563263,0.460861 0.5126513,0.921722 0.7689763,1.382585 -0.246208,0.09019 -0.492415,0.180388 -0.738624,0.270583 -0.2398474,-0.479703 -0.4796951,-0.959406 -0.7195421,-1.439108 -0.3248493,0.106979 -0.6496977,0.213959 -0.9745466,0.320938 0,-0.206075 0,-0.412149 0,-0.618223 0,-0.988162 0,-1.976323 0,-2.964486 z"
       style="opacity:0.638074;fill:#0000ff;fill-opacity:1;stroke:#075d82;stroke-width:0.308913;stroke-linecap:round;stroke-linejoin:round;stroke-miterlimit:4;stroke-dasharray:none;stroke-opacity:1"
       inkscape:connector-curvature="0" />
    <path
       sodipodi:nodetypes="ccssccssscc"
       id="path4947-7"
       d="m 8.5557384,11.694583 c 0,0.92532 -0.016831,1.771114 -0.016831,2.69642 0.2326292,-0.07593 0.4554847,-0.121231 0.6862645,-0.197231 0.1006199,-0.03158 0.2088005,0.01546 0.2568145,0.111649 0.2113717,0.42275 0.4217663,0.84214 0.6321606,1.263666 0.105846,-0.03839 0.210592,-0.07853 0.31608,-0.116725 -0.213601,-0.3841 -0.4288,-0.768625 -0.6420377,-1.152016 -0.031499,-0.05698 -0.03705,-0.125304 -0.015176,-0.186862 0.02187,-0.06156 0.068953,-0.110137 0.12877,-0.13286 C 10.178751,13.8797 10.431168,13.773451 10.707928,13.672665 9.974575,12.994928 9.2892821,12.372401 8.5557426,11.694583 Z"
       style="opacity:0.638074;fill:#ffffff;fill-opacity:1;stroke:#ffffff;stroke-width:0.154457;stroke-linecap:round;stroke-linejoin:round;stroke-miterlimit:4;stroke-opacity:1"
       inkscape:connector-curvature="0" />
    <path
       sodipodi:nodetypes="cccccccsc"
       id="path3669-6-3"
       d="m 21.010475,9.7769821 c 0.944904,0.8736739 1.889808,1.7473479 2.834713,2.6210219 -0.390326,0.14223 -0.780651,0.284459 -1.170977,0.426688 0.256326,0.460862 0.512651,0.921723 0.768977,1.382585 -0.246208,0.0902 -0.492416,0.180389 -0.738624,0.270583 -0.239848,-0.479702 -0.479696,-0.959405 -0.719543,-1.439108 -0.324849,0.10698 -0.649698,0.213959 -0.974546,0.320938 0,-0.206074 0,-0.412148 0,-0.618223 0,-0.988161 0,-1.976323 0,-2.9644849 z"
       style="opacity:0.301516;fill:#0000ff;fill-opacity:1;stroke:#001924;stroke-width:0.308913;stroke-linecap:round;stroke-linejoin:round;stroke-miterlimit:4;stroke-dasharray:none;stroke-opacity:1"
       inkscape:connector-curvature="0" />
    <path
       sodipodi:nodetypes="ccssccssscc"
       id="path4947-7-5"
       d="m 21.253766,10.328703 c 0,0.92532 -0.01683,1.771114 -0.01683,2.696419 0.232629,-0.07593 0.455485,-0.12123 0.686265,-0.197231 0.10062,-0.03158 0.2088,0.01546 0.256814,0.11165 0.211372,0.42275 0.421766,0.84214 0.63216,1.263666 0.105846,-0.03839 0.210592,-0.07853 0.31608,-0.116725 -0.213601,-0.384101 -0.4288,-0.768625 -0.642037,-1.152016 -0.0315,-0.05698 -0.03705,-0.125304 -0.01518,-0.186863 0.02187,-0.06156 0.06895,-0.110136 0.12877,-0.13286 0.276968,-0.100923 0.529385,-0.207172 0.806144,-0.307958 -0.733353,-0.677737 -1.418646,-1.300264 -2.152186,-1.978082 z"
       style="opacity:0.301516;fill:#ffffff;fill-opacity:1;stroke:#ffffff;stroke-width:0.154457;stroke-linecap:round;stroke-linejoin:round;stroke-miterlimit:4;stroke-opacity:1"
       inkscape:connector-curvature="0" />
    <g
       id="g149"
       transform="matrix(1.2394741,0,0,1.2394741,2.5728632,-5.0352569)">
      <rect
         ry="0.78669089"
         rx="0.73473781"
         y="16.035915"
         x="7.328011"
         height="10.302195"
         width="10.653699"
         id="rect8015-2-7-0"
         style="fill:url(#linearGradient8035);fill-opacity:1;stroke:#888a85;stroke-width:0.372975;stroke-miterlimit:4;stroke-dasharray:none;stroke-opacity:1" />
      <path
         sodipodi:nodetypes="cccccc"
         id="path8017-6-4-9"
         d="m 7.3280114,17.839752 v -1.346995 c 0,-0.422757 0.2879721,-0.7631 0.6456777,-0.7631 h 9.3623319 c 0.357704,0 0.645677,0.340343 0.645677,0.7631 v 1.346995"
         style="opacity:0.5;fill:#0696d6;fill-opacity:1;stroke:#204a87;stroke-width:0.372975;stroke-miterlimit:4;stroke-opacity:1"
         inkscape:connector-curvature="0" />
      <rect
         ry="0.5930205"
         rx="0.55510026"
         y="16.109068"
         x="7.6906404"
         height="9.841671"
         width="9.9344044"
         id="rect8019-1-5-1"
         style="opacity:0.52;fill:none;stroke:url(#linearGradient8029);stroke-width:0.372975;stroke-miterlimit:4;stroke-dasharray:none;stroke-opacity:1" />
    </g>
    <path
       sodipodi:nodetypes="cccccccsc"
       id="path3669"
       d="m 19.023057,17.028531 c 1.83649,1.69805 3.67298,3.396098 5.509471,5.094146 -0.758626,0.276435 -1.517251,0.552868 -2.275878,0.829301 0.498188,0.895718 0.996375,1.791435 1.494562,2.687155 -0.478523,0.175299 -0.957046,0.350598 -1.43557,0.525898 -0.466161,-0.932338 -0.932323,-1.864675 -1.398483,-2.797012 -0.631368,0.207923 -1.262735,0.415845 -1.894102,0.623767 0,-0.400521 0,-0.801041 0,-1.201562 0,-1.920563 0,-3.841127 0,-5.761693 z"
       style="fill:#000005;fill-opacity:1;stroke:#07577a;stroke-width:0.600395;stroke-linecap:round;stroke-linejoin:round;stroke-miterlimit:4;stroke-dasharray:none;stroke-opacity:1"
       inkscape:connector-curvature="0" />
    <path
       sodipodi:nodetypes="ccssccssscc"
       id="path4947"
       d="m 19.495911,18.100841 c 0,1.798426 -0.03271,3.442289 -0.03271,5.240687 0.452132,-0.147585 0.885268,-0.23562 1.333805,-0.383333 0.195562,-0.06137 0.405819,0.03004 0.499138,0.216999 0.410816,0.821646 0.819733,1.63676 1.228649,2.456027 0.205719,-0.07462 0.409301,-0.152636 0.614324,-0.226863 -0.415149,-0.746528 -0.833404,-1.493879 -1.247845,-2.239027 -0.06122,-0.110747 -0.07201,-0.243538 -0.0295,-0.363181 0.0425,-0.119644 0.134015,-0.214059 0.250274,-0.258223 0.538306,-0.196152 1.028897,-0.402655 1.5668,-0.59854 -1.425325,-1.317232 -2.757242,-2.527158 -4.182929,-3.844546 z"
       style="fill:#fcfcfc;fill-opacity:1;stroke:#ffffff;stroke-width:0.300198;stroke-linecap:round;stroke-linejoin:round;stroke-miterlimit:4;stroke-opacity:1"
       inkscape:connector-curvature="0" />
  </g>
</svg>
