<?xml version="1.0" encoding="UTF-8" standalone="no"?>
<!-- Created with Inkscape (http://www.inkscape.org/) -->

<svg
   xmlns:dc="http://purl.org/dc/elements/1.1/"
   xmlns:cc="http://creativecommons.org/ns#"
   xmlns:rdf="http://www.w3.org/1999/02/22-rdf-syntax-ns#"
   xmlns:svg="http://www.w3.org/2000/svg"
   xmlns="http://www.w3.org/2000/svg"
   xmlns:xlink="http://www.w3.org/1999/xlink"
   xmlns:sodipodi="http://sodipodi.sourceforge.net/DTD/sodipodi-0.dtd"
   xmlns:inkscape="http://www.inkscape.org/namespaces/inkscape"
   inkscape:export-ydpi="90.000000"
   inkscape:export-xdpi="90.000000"
   inkscape:export-filename="/home/jimmac/Desktop/wi-fi.png"
   width="32"
   height="32"
   id="svg11300"
   sodipodi:version="0.32"
   inkscape:version="0.92.4 (unknown)"
   sodipodi:docname="plugin-fisheye.svg"
   inkscape:output_extension="org.inkscape.output.svg.inkscape"
   sodipodi:modified="true"
   version="1.0">
  <defs
     id="defs3">
    <linearGradient
       inkscape:collect="always"
       xlink:href="#linearGradient3678"
       id="linearGradient8241"
       gradientUnits="userSpaceOnUse"
       gradientTransform="matrix(0.68475528,0,0,0.71303454,0.03774723,-0.39693688)"
       x1="4.625"
       y1="-7.625"
       x2="23.875"
       y2="47.75" />
    <linearGradient
       id="linearGradient3678"
       inkscape:collect="always">
      <stop
         id="stop3680"
         offset="0"
         style="stop-color:white;stop-opacity:1;" />
      <stop
         id="stop3682"
         offset="1"
         style="stop-color:white;stop-opacity:0;" />
    </linearGradient>
    <linearGradient
       inkscape:collect="always"
       xlink:href="#linearGradient4376"
       id="linearGradient8238"
       gradientUnits="userSpaceOnUse"
       gradientTransform="matrix(0.71904283,0,0,0.74044861,-1.413236,-0.87685723)"
       x1="9.562501"
       y1="39.312511"
       x2="7.5000014"
       y2="34.187511" />
    <linearGradient
       id="linearGradient4376">
      <stop
         style="stop-color:#babdb6;stop-opacity:1"
         offset="0"
         id="stop4378" />
      <stop
         style="stop-color:#eeeeec;stop-opacity:1"
         offset="1"
         id="stop4380" />
    </linearGradient>
    <linearGradient
       inkscape:collect="always"
       xlink:href="#linearGradient3678"
       id="linearGradient8235"
       gradientUnits="userSpaceOnUse"
       gradientTransform="matrix(0.71904283,0,0,0.73765575,-0.66254128,-0.78206699)"
       x1="3.875"
       y1="33.875"
       x2="4.1875"
       y2="39.375" />
    <linearGradient
       inkscape:collect="always"
       xlink:href="#linearGradient3678"
       id="linearGradient958"
       x1="3.1963046"
       y1="18.25"
       x2="31.803696"
       y2="18.25"
       gradientUnits="userSpaceOnUse"
       gradientTransform="matrix(0.6359342,0,0,0.6243723,-26.093462,-28.825898)" />
    <radialGradient
       inkscape:collect="always"
       xlink:href="#linearGradient3678"
       id="radialGradient8252"
       gradientUnits="userSpaceOnUse"
       gradientTransform="matrix(-1.1800713,0.38030748,-0.33740628,-1.0463109,44.561092,34.553591)"
       cx="16.829521"
       cy="24.743624"
       fx="16.829521"
       fy="24.743624"
       r="16.924616" />
    <linearGradient
       inkscape:collect="always"
       xlink:href="#linearGradient4376"
       id="linearGradient8229"
       gradientUnits="userSpaceOnUse"
       gradientTransform="matrix(0.71904283,0,0,0.73765575,-1.413236,-1.2017697)"
       x1="7.5"
       y1="15.75"
       x2="6.3125"
       y2="10" />
    <linearGradient
       inkscape:collect="always"
       xlink:href="#linearGradient4376"
       id="linearGradient8226"
       gradientUnits="userSpaceOnUse"
       gradientTransform="matrix(0.70784151,0,0,0.73765575,-1.0155791,-1.2020168)"
       x1="41.375"
       y1="14.75"
       x2="42.0625"
       y2="9.875" />
    <linearGradient
       inkscape:collect="always"
       xlink:href="#linearGradient3678"
       id="linearGradient8223"
       gradientUnits="userSpaceOnUse"
       gradientTransform="matrix(-0.63322137,0,0,-0.66254539,31.869591,31.405016)"
       x1="5.5493865"
       y1="37.843178"
       x2="3.8596659"
       y2="33.251427" />
    <linearGradient
       inkscape:collect="always"
       xlink:href="#linearGradient3678"
       id="linearGradient8217"
       gradientUnits="userSpaceOnUse"
       gradientTransform="matrix(0,-0.73765575,0.70576717,0,2.6258739,29.835473)"
       x1="7.31251"
       y1="37.000011"
       x2="3.93751"
       y2="37.875011" />
    <linearGradient
       inkscape:collect="always"
       xlink:href="#linearGradient3678"
       id="linearGradient8214"
       gradientUnits="userSpaceOnUse"
       gradientTransform="matrix(0.64457159,0,0,-0.71865319,-0.32387091,33.608868)"
       x1="3.870008"
       y1="37.710594"
       x2="5.3180737"
       y2="33.51659" />
  </defs>
  <sodipodi:namedview
     stroke="#ef2929"
     fill="#eeeeec"
     id="base"
     pagecolor="#ffffff"
     bordercolor="#666666"
     borderopacity="0.25490196"
     inkscape:pageopacity="0.0"
     inkscape:pageshadow="2"
     inkscape:zoom="25.65625"
     inkscape:cx="8.8867235"
     inkscape:cy="15.844093"
     inkscape:current-layer="layer1"
     showgrid="false"
     inkscape:grid-bbox="true"
     inkscape:document-units="px"
     inkscape:showpageshadow="false"
     inkscape:window-width="1920"
     inkscape:window-height="1036"
     inkscape:window-x="0"
     inkscape:window-y="0"
     showguides="true"
     inkscape:guide-bbox="true"
     inkscape:window-maximized="1">
    <inkscape:grid
       type="xygrid"
       id="grid7889"
       empspacing="5"
       visible="true"
       enabled="true" />
  </sodipodi:namedview>
  <metadata
     id="metadata4">
    <rdf:RDF>
      <cc:Work
         rdf:about="">
        <dc:format>image/svg+xml</dc:format>
        <dc:type
           rdf:resource="http://purl.org/dc/dcmitype/StillImage" />
        <dc:creator>
          <cc:Agent>
            <dc:title>Patrick Niklaus</dc:title>
          </cc:Agent>
        </dc:creator>
        <dc:source />
        <cc:license
           rdf:resource="http://creativecommons.org/licenses/GPL/2.0/" />
        <dc:title />
        <dc:subject>
          <rdf:Bag />
        </dc:subject>
      </cc:Work>
      <cc:License
         rdf:about="http://creativecommons.org/licenses/GPL/2.0/">
        <cc:permits
           rdf:resource="http://web.resource.org/cc/Reproduction" />
        <cc:permits
           rdf:resource="http://web.resource.org/cc/Distribution" />
        <cc:requires
           rdf:resource="http://web.resource.org/cc/Notice" />
        <cc:permits
           rdf:resource="http://web.resource.org/cc/DerivativeWorks" />
        <cc:requires
           rdf:resource="http://web.resource.org/cc/ShareAlike" />
        <cc:requires
           rdf:resource="http://web.resource.org/cc/SourceCode" />
      </cc:License>
    </rdf:RDF>
  </metadata>
  <g
     id="layer1"
     inkscape:label="Layer 1"
     inkscape:groupmode="layer">
    <g
       id="g918">
      <rect
         style="display:inline;overflow:visible;visibility:visible;fill:#0696d6;fill-opacity:1;fill-rule:nonzero;stroke:#888a85;stroke-width:1.01285958;stroke-linecap:round;stroke-linejoin:round;stroke-miterlimit:4;stroke-dasharray:none;stroke-dashoffset:1.20000052;stroke-opacity:1;marker:none;marker-start:none;marker-mid:none;marker-end:none"
         id="rect1879"
         y="6.0832248"
         x="2.1073239"
         height="21.281164"
         width="27.367487" />
      <rect
         style="display:inline;overflow:visible;visibility:visible;fill:none;fill-opacity:1;fill-rule:nonzero;stroke:url(#linearGradient8241);stroke-width:1.01285958;stroke-linecap:round;stroke-linejoin:round;stroke-miterlimit:4;stroke-dasharray:none;stroke-dashoffset:1.20000052;stroke-opacity:1;marker:none;marker-start:none;marker-mid:none;marker-end:none"
         id="rect3674"
         y="7.0899277"
         x="3.1191325"
         height="19.251911"
         width="25.335955" />
      <path
         inkscape:connector-curvature="0"
         style="display:inline;overflow:visible;visibility:visible;fill:url(#linearGradient8238);fill-opacity:1;fill-rule:nonzero;stroke:#888a85;stroke-width:1.01286006;stroke-linecap:round;stroke-linejoin:round;stroke-miterlimit:4;stroke-dashoffset:1.20000052;stroke-opacity:1;marker:none;marker-start:none;marker-mid:none;marker-end:none"
         id="rect2768"
         d="m 1.4728281,22.447271 5.3829302,5.543179 c 0,0.210746 -0.1647577,0.380409 -0.3694138,0.380409 H 1.4728281 c -0.2046556,0 -0.3694143,-0.169663 -0.3694143,-0.380409 v -5.162768 c 0,-0.210749 0.1647587,-0.380411 0.3694143,-0.380411 z" />
      <path
         inkscape:connector-curvature="0"
         style="display:inline;overflow:visible;visibility:visible;opacity:0.6;fill:none;fill-opacity:1;fill-rule:nonzero;stroke:url(#linearGradient8235);stroke-width:1.01286006;stroke-linecap:round;stroke-linejoin:miter;stroke-miterlimit:4;stroke-dasharray:none;stroke-dashoffset:1.20000052;stroke-opacity:1;marker:none;marker-start:none;marker-mid:none;marker-end:none"
         id="path3688"
         d="m 2.1231495,24.64293 v 2.642394 l 2.6589458,0.0633 z" />
      <ellipse
         ry="8.5851192"
         rx="8.5851116"
         cy="-17.431103"
         cx="-14.964614"
         style="display:inline;overflow:visible;visibility:visible;opacity:1;fill:url(#linearGradient958);fill-opacity:1;fill-rule:nonzero;stroke:#000000;stroke-width:1.06080759;stroke-linecap:round;stroke-linejoin:round;stroke-miterlimit:4;stroke-dasharray:none;stroke-dashoffset:0;stroke-opacity:1;marker:none;marker-start:none;marker-mid:none;marker-end:none"
         id="path1425"
         transform="rotate(177.13175)" />
      <path
         inkscape:connector-curvature="0"
         sodipodi:nodetypes="csscsssc"
         id="path4939"
         d="m 22.543812,12.245308 c -0.01273,2.743736 -2.844778,5.419945 -3.25803,5.706039 -2.48862,1.722882 -6.14498,2.267506 -9.5472015,-1.601737 -0.8329556,-0.947296 -1.3104493,-1.87642 -1.7195176,-1.852476 -0.2262585,0.826337 -0.318148,1.776682 -0.2728973,2.679842 0.2289271,4.569213 3.8794134,7.758313 8.4393494,7.529849 4.559937,-0.228464 7.913897,-3.958776 7.684968,-8.527987 -0.07621,-1.520967 -0.550665,-2.74639 -1.326671,-3.93353 z"
         style="display:inline;overflow:visible;visibility:visible;opacity:1;fill:url(#radialGradient8252);fill-opacity:1;fill-rule:nonzero;stroke:none;stroke-width:2.02572012;stroke-linecap:round;stroke-linejoin:round;stroke-miterlimit:4;stroke-dasharray:none;stroke-dashoffset:0;stroke-opacity:1;marker:none;marker-start:none;marker-mid:none;marker-end:none" />
      <path
         inkscape:connector-curvature="0"
         style="display:inline;overflow:visible;visibility:visible;fill:url(#linearGradient8229);fill-opacity:1;fill-rule:nonzero;stroke:#888a85;stroke-width:1.01286006;stroke-linecap:round;stroke-linejoin:round;stroke-miterlimit:4;stroke-dashoffset:1.20000052;stroke-opacity:1;marker:none;marker-start:none;marker-mid:none;marker-end:none"
         id="path4583"
         d="M 6.8557569,5.4472874 1.4728271,10.969551 c -0.2046553,0 -0.3694133,-0.169022 -0.3694133,-0.378976 V 5.4472874 c 0,-0.2099527 0.164758,-0.3789759 0.3694133,-0.3789759 h 5.0135162 c 0.2046559,0 0.3694136,0.1690232 0.3694136,0.3789759 z" />
      <path
         inkscape:connector-curvature="0"
         style="display:inline;overflow:visible;visibility:visible;fill:url(#linearGradient8226);fill-opacity:1;fill-rule:nonzero;stroke:#888a85;stroke-width:1.01286006;stroke-linecap:round;stroke-linejoin:round;stroke-miterlimit:4;stroke-dashoffset:1.20000052;stroke-opacity:1;marker:none;marker-start:none;marker-mid:none;marker-end:none"
         id="path4589"
         d="M 30.119707,10.969301 24.820633,5.4470397 c 0,-0.209953 0.16219,-0.3789758 0.363659,-0.3789758 h 4.935415 c 0.201469,0 0.363662,0.1690228 0.363662,0.3789758 v 5.1432853 c 0,0.209954 -0.162193,0.378976 -0.363662,0.378976 z" />
      <path
         inkscape:connector-curvature="0"
         style="display:inline;overflow:visible;visibility:visible;opacity:0.5;fill:url(#linearGradient8223);fill-opacity:1;fill-rule:nonzero;stroke:none;stroke-width:1.01286006;stroke-linecap:round;stroke-linejoin:miter;stroke-miterlimit:4;stroke-dashoffset:1.20000052;stroke-opacity:1;marker:none"
         id="path4591"
         d="m 25.675892,5.5657424 0.554069,0.5590225 0.09894,0.1035232 h 0.870681 2.137122 v 2.2360891 0.9109989 l 0.09894,0.1035232 0.534282,0.5797247 V 9.2511487 5.897015 5.5657424 h -0.316612 -3.205682 z" />
      <path
         inkscape:connector-curvature="0"
         style="display:inline;overflow:visible;visibility:visible;fill:#babdb6;fill-opacity:1;fill-rule:nonzero;stroke:#888a85;stroke-width:1.01286006;stroke-linecap:round;stroke-linejoin:round;stroke-miterlimit:4;stroke-dashoffset:1.20000052;stroke-opacity:1;marker:none;marker-start:none;marker-mid:none;marker-end:none"
         id="path4595"
         d="m 24.831825,27.992182 5.285366,-5.52227 c 0.20095,0 0.36272,0.169023 0.36272,0.378977 v 5.143293 c 0,0.209953 -0.16177,0.378975 -0.36272,0.378975 h -4.922647 c -0.200944,0 -0.362719,-0.169022 -0.362719,-0.378975 z" />
      <path
         inkscape:connector-curvature="0"
         style="display:inline;overflow:visible;visibility:visible;opacity:0.6;fill:none;fill-opacity:1;fill-rule:nonzero;stroke:url(#linearGradient8217);stroke-width:1.01286006;stroke-linecap:round;stroke-linejoin:miter;stroke-miterlimit:4;stroke-dasharray:none;stroke-dashoffset:1.20000052;stroke-opacity:1;marker:none;marker-start:none;marker-mid:none;marker-end:none"
         id="path4597"
         d="m 26.63644,27.570198 2.797475,-0.23739 v -2.674045 z" />
      <path
         inkscape:connector-curvature="0"
         style="display:inline;overflow:visible;visibility:visible;opacity:0.5;fill:url(#linearGradient8214);fill-opacity:1;fill-rule:nonzero;stroke:none;stroke-width:1.01286006;stroke-linecap:round;stroke-linejoin:miter;stroke-miterlimit:4;stroke-dashoffset:1.20000052;stroke-opacity:1;marker:none"
         id="path5522"
         d="m 5.9808452,5.5813891 -0.564,0.6063637 -0.1007145,0.1122894 H 4.4298447 2.2544155 V 8.7254935 9.713641 L 2.1537013,9.8259315 1.6098439,10.45475 V 9.5788944 5.9407157 5.5813891 h 0.3222858 3.2631439 z" />
      <ellipse
         ry="8.5851192"
         rx="8.5851116"
         cy="-16.887602"
         cx="-14.772553"
         style="display:inline;overflow:visible;visibility:visible;opacity:1;fill:none;fill-opacity:1;fill-rule:nonzero;stroke:#fffefe;stroke-width:1.06080759;stroke-linecap:round;stroke-linejoin:round;stroke-miterlimit:4;stroke-dasharray:none;stroke-dashoffset:0;stroke-opacity:1;marker:none;marker-start:none;marker-mid:none;marker-end:none"
         id="path1425-5"
         transform="rotate(177.13175)" />
      <path
         sodipodi:nodetypes="cccccccsc"
         id="path3669"
         d="m 20.010544,16.126094 c 2.993505,1.523522 5.987009,3.047043 8.980514,4.570563 -0.90175,0.620225 -1.803501,1.240447 -2.705251,1.86067 0.961024,0.96926 1.922049,1.93852 2.883073,2.907781 -0.568485,0.392412 -1.136967,0.784824 -1.705451,1.177236 -0.931499,-1.027324 -1.862998,-2.054647 -2.794496,-3.081972 -0.758064,0.487892 -1.516127,0.975781 -2.27419,1.463671 -0.137137,-0.511802 -0.274274,-1.023605 -0.411412,-1.535408 -0.657595,-2.454181 -1.315191,-4.908362 -1.972787,-7.362541 z"
         style="fill:#ffffff;fill-opacity:1;stroke:#0000d3;stroke-width:1.01286006;stroke-linecap:round;stroke-linejoin:round;stroke-miterlimit:4;stroke-dasharray:none;stroke-opacity:0.58431373"
         inkscape:connector-curvature="0" />
      <path
         transform="matrix(0.40343529,-0.10810015,0.10807216,0.40333082,-6.6186317,16.049821)"
         d="m 63.347656,20.763672 c 10e-7,5.167287 10e-7,10.334759 0,15.501953 1.27504,-0.404478 2.553013,-0.80995 3.816406,-1.214844 a 1.8173478,1.8173478 0 0 1 2.171876,0.900391 c 1.276932,2.485356 2.539167,4.955403 3.808593,7.43164 0.379377,-0.133682 0.756331,-0.267246 1.134766,-0.40039 -1.265326,-2.214333 -2.532254,-4.433293 -3.794922,-6.642578 a 1.8173478,1.8173478 0 0 1 0.970703,-2.615235 c 1.509381,-0.535236 3.017314,-1.06912 4.525391,-1.603515 -4.210392,-3.786146 -8.421136,-7.570755 -12.632813,-11.357422 z"
         id="path4947"
         style="fill:none;fill-opacity:1;stroke:#fbfbfa;stroke-width:1.21267831;stroke-linecap:round;stroke-linejoin:round;stroke-miterlimit:4;stroke-dasharray:none;stroke-opacity:1"
         inkscape:original="M 61.53125 16.6875 C 61.53125 24.041224 61.531252 31.396275 61.53125 38.75 C 63.586736 38.091255 65.663264 37.439994 67.71875 36.78125 C 69.236389 39.735106 70.732361 42.671146 72.25 45.625 C 73.807883 45.069613 75.379614 44.524136 76.9375 43.96875 C 75.315598 41.13091 73.684402 38.275337 72.0625 35.4375 C 74.53229 34.561697 76.998957 33.688302 79.46875 32.8125 C 73.489854 27.432696 67.510147 22.067306 61.53125 16.6875 z "
         inkscape:radius="-1.8171661"
         sodipodi:type="inkscape:offset" />
      <path
         sodipodi:nodetypes="cscsccsscscsccscsccccccsccccscccccccccscccccccc"
         inkscape:connector-curvature="0"
         id="path905"
         d="m 8.0190629,14.497134 c 0,0 0.1424317,-0.448062 0.3032336,-0.740429 0.1608019,-0.292367 0.292367,-0.599353 0.292367,-0.599353 0,0 0.066096,-0.270549 0.3946955,-0.78939 0.2777487,-0.438551 0.4677873,-0.657826 0.540879,-0.760155 0.073092,-0.102325 0.511643,-0.555497 0.511643,-0.555497 0,0 0.467787,-0.526261 0.833246,-0.760154 0.365459,-0.233894 -0.219275,0.07309 0.570115,-0.3946957 L 12.254633,9.429673 c 0,0 0.380077,-0.2777487 1.50569,-0.5554973 1.125614,-0.2777487 2.353555,-0.2631304 2.353555,-0.2631304 0,0 -1.402452,-0.3786836 0.292367,-0.029237 l 1.41798,0.2923671 1.096376,0.3508404 c 0,0 -1.164864,-0.6347781 0.17542,0.058473 l 0.847864,0.4385505 c 0,0 -0.467788,-0.1315652 0.160802,0.2192753 l 0.628589,0.3508404 c 0,0 -0.102325,0 0.26313,0.306986 0.365459,0.306986 0.350841,0.336223 0.350841,0.336223 l 0.555497,0.643207 0.641067,0.666737 c 0,0 0.104468,-0.184332 -0.114806,0.488113 -0.219276,0.672443 -0.146184,0.716298 -0.336222,1.154849 -0.190039,0.43855 -0.175421,0.7163 -0.365459,0.920957 -0.190038,0.204656 -0.643208,1.227941 -0.643208,1.227941 l -0.497023,0.789391 -0.745537,0.672444 c 0,0 -0.204656,0.204657 -0.599352,0.423933 -0.394695,0.219275 -0.950193,0.570115 -0.950193,0.570115 0,0 0.599352,-0.190039 -0.277749,0.160802 l -0.877101,0.35084 -0.979429,0.17542 -0.847865,0.116947 -1.05252,-0.08771 -0.613971,-0.160801 c 0,0 0.877101,0.248511 -0.07309,-0.07309 -0.950193,-0.321604 -1.052521,-0.380077 -1.052521,-0.380077 0,0 0.672443,0.336221 -0.05847,-0.07309 -0.730918,-0.409314 -0.760154,-0.380077 -0.760154,-0.380077 L 10.807416,17.411293 10.003407,16.651139 9.6087114,16.139496 9.1701609,15.598617 8.8631755,15.189304 8.4538617,14.823845 Z"
         style="opacity:0.38000039;fill:#0696d6;fill-opacity:1;stroke:none;stroke-width:1.06080747px;stroke-linecap:butt;stroke-linejoin:miter;stroke-opacity:1" />
    </g>
  </g>
</svg>
