<?xml version="1.0" encoding="UTF-8"?>
<svg xmlns="http://www.w3.org/2000/svg" xmlns:xlink="http://www.w3.org/1999/xlink" width="32px" height="32px" viewBox="0 0 32 32" version="1.1">
<g id="surface1">
<path style=" stroke:none;fill-rule:nonzero;fill:rgb(10.196078%,10.196078%,10.196078%);fill-opacity:1;" d="M 14.515625 11.171875 C 13.972656 10.582031 13.613281 9.824219 13.503906 9.03125 C 13.394531 8.238281 13.53125 7.410156 13.894531 6.695312 C 14.253906 5.980469 14.839844 5.382812 15.542969 5 C 16.25 4.621094 17.070312 4.460938 17.867188 4.546875 C 19.148438 4.691406 20.339844 5.5 20.9375 6.640625 L 28.160156 7.636719 L 19.929688 7.636719 C 19.417969 6.980469 18.640625 6.53125 17.816406 6.417969 C 17.226562 6.339844 16.613281 6.421875 16.066406 6.664062 C 15.523438 6.902344 15.046875 7.292969 14.707031 7.785156 C 14.367188 8.273438 14.164062 8.855469 14.132812 9.449219 C 14.097656 10.042969 14.234375 10.648438 14.515625 11.171875 "/>
<path style=" stroke:none;fill-rule:nonzero;fill:rgb(0.392157%,57.254902%,82.745098%);fill-opacity:1;" d="M 15.53125 13.871094 L 4.480469 5.929688 C 3.949219 6.976562 3.742188 8.179688 3.886719 9.339844 C 4.03125 10.503906 4.53125 11.617188 5.300781 12.5 C 6.3125 13.660156 7.789062 14.398438 9.320312 14.511719 C 8.597656 14.28125 7.933594 13.859375 7.414062 13.308594 C 6.894531 12.753906 6.515625 12.070312 6.324219 11.332031 C 6.105469 10.492188 6.136719 9.585938 6.414062 8.757812 L 15.53125 13.871094 "/>
<path style=" stroke:none;fill-rule:nonzero;fill:rgb(0.392157%,57.254902%,82.745098%);fill-opacity:1;" d="M 14.917969 16.015625 L 5.207031 13.285156 C 5.128906 14.191406 5.308594 15.121094 5.714844 15.933594 C 6.125 16.75 6.761719 17.445312 7.539062 17.925781 C 8.6875 18.636719 10.136719 18.851562 11.441406 18.5 C 10.132812 18.507812 8.835938 17.859375 8.0625 16.804688 C 7.625 16.210938 7.347656 15.5 7.273438 14.765625 L 14.917969 16.015625 "/>
<path style=" stroke:none;fill-rule:nonzero;fill:rgb(0.392157%,57.254902%,82.745098%);fill-opacity:1;" d="M 19.34375 9.921875 C 19.164062 10.296875 19.039062 10.695312 18.972656 11.105469 C 18.773438 12.378906 19.148438 13.664062 19.527344 14.894531 C 19.90625 16.128906 20.289062 17.410156 20.097656 18.683594 C 19.957031 19.636719 19.492188 20.527344 18.84375 21.234375 C 18.191406 21.945312 17.363281 22.480469 16.472656 22.84375 C 15.003906 23.441406 13.351562 23.582031 11.800781 23.242188 L 11.800781 27.476562 L 13.074219 24.453125 C 14.726562 24.828125 16.492188 24.675781 18.054688 24.023438 C 19.171875 23.554688 20.195312 22.828125 20.929688 21.863281 C 21.664062 20.902344 22.105469 19.699219 22.074219 18.488281 C 22.035156 17.03125 21.347656 15.679688 20.683594 14.386719 C 20.015625 13.089844 19.339844 11.730469 19.332031 10.273438 C 19.332031 10.15625 19.335938 10.039062 19.34375 9.921875 "/>
</g>
</svg>
