<?xml version="1.0" encoding="UTF-8" standalone="no"?>
<!-- Created with Inkscape (http://www.inkscape.org/) -->

<svg
   xmlns:dc="http://purl.org/dc/elements/1.1/"
   xmlns:cc="http://creativecommons.org/ns#"
   xmlns:rdf="http://www.w3.org/1999/02/22-rdf-syntax-ns#"
   xmlns:svg="http://www.w3.org/2000/svg"
   xmlns="http://www.w3.org/2000/svg"
   xmlns:sodipodi="http://sodipodi.sourceforge.net/DTD/sodipodi-0.dtd"
   xmlns:inkscape="http://www.inkscape.org/namespaces/inkscape"
   version="1.0"
   x="0.0000000"
   y="0.0000000"
   width="0.33333001in"
   height="0.33333001in"
   viewBox="0 0 136.53197 136.53197"
   id="svg1"
   xml:space="preserve"
   sodipodi:docname="plugin-idle.svg"
   inkscape:version="0.92.4 (unknown)"><metadata
   id="metadata3585"><rdf:RDF><cc:Work
       rdf:about=""><dc:format>image/svg+xml</dc:format><dc:type
         rdf:resource="http://purl.org/dc/dcmitype/StillImage" /><dc:title /></cc:Work></rdf:RDF></metadata><sodipodi:namedview
   pagecolor="#ffffff"
   bordercolor="#666666"
   borderopacity="1"
   objecttolerance="10"
   gridtolerance="10"
   guidetolerance="10"
   inkscape:pageopacity="0"
   inkscape:pageshadow="2"
   inkscape:window-width="1920"
   inkscape:window-height="1036"
   id="namedview3583"
   showgrid="false"
   inkscape:zoom="18.141889"
   inkscape:cx="-10.155099"
   inkscape:cy="15.622865"
   inkscape:window-x="0"
   inkscape:window-y="0"
   inkscape:window-maximized="1"
   inkscape:current-layer="svg1"
   units="in"
   showguides="true"
   inkscape:guide-bbox="true" />
  <defs
   id="defs647" />
  
<g
   id="g870"><polyline
     transform="matrix(0.55307657,0,0,0.56411991,-0.14823805,4.1864398)"
     id="_x3C_Slice_x3E_"
     points="0,256 0,0 256,0 256,256 "
     style="fill:none" /><rect
     y="18.189621"
     x="5.4026594"
     height="98.670494"
     width="125.45293"
     id="rect840"
     style="opacity:0.72000002;fill:#0696d6;fill-opacity:1;stroke:#000000;stroke-width:4.42869091;stroke-miterlimit:4;stroke-dasharray:none;stroke-opacity:1" /><path
     transform="matrix(0.65951232,0.11547725,-0.11321664,0.67268087,-15.614235,-16.054723)"
     inkscape:transform-center-y="-2.8794672"
     inkscape:transform-center-x="-0.12548893"
     d="m 167.99755,134.29432 -15.76793,-5.34706 -13.34386,9.95791 0.2128,-16.64852 -13.59402,-9.6136 15.89945,-4.94229 4.94229,-15.899448 9.6136,13.594018 16.64852,-0.2128 -9.95791,13.34386 z"
     inkscape:randomized="0"
     inkscape:rounded="0"
     inkscape:flatsided="false"
     sodipodi:arg2="1.4137167"
     sodipodi:arg1="0.78539816"
     sodipodi:r2="12.536325"
     sodipodi:r1="25.072651"
     sodipodi:cy="116.56528"
     sodipodi:cx="150.26851"
     sodipodi:sides="5"
     id="path3884"
     style="opacity:1;fill:#d2f7fc;fill-opacity:1;stroke:none;stroke-width:4.26666689"
     sodipodi:type="star" /><path
     transform="matrix(0.38229237,0.06693744,-0.06562706,0.38992564,46.881525,37.259456)"
     inkscape:transform-center-y="-1.6691101"
     inkscape:transform-center-x="-0.072738912"
     d="m 167.99755,134.29432 -15.76793,-5.34706 -13.34386,9.95791 0.2128,-16.64852 -13.59402,-9.6136 15.89945,-4.94229 4.94229,-15.899448 9.6136,13.594018 16.64852,-0.2128 -9.95791,13.34386 z"
     inkscape:randomized="0"
     inkscape:rounded="0"
     inkscape:flatsided="false"
     sodipodi:arg2="1.4137167"
     sodipodi:arg1="0.78539816"
     sodipodi:r2="12.536325"
     sodipodi:r1="25.072651"
     sodipodi:cy="116.56528"
     sodipodi:cx="150.26851"
     sodipodi:sides="5"
     id="path3884-0"
     style="opacity:1;fill:#f2f4fc;fill-opacity:1;stroke:none;stroke-width:4.26666689"
     sodipodi:type="star" /><path
     transform="matrix(0.15751846,0.14684327,-0.14396863,0.16066365,103.4146,-7.7571134)"
     inkscape:transform-center-y="0.82329536"
     inkscape:transform-center-x="-0.13895972"
     d="m 167.99755,134.29432 -15.76793,-5.34706 -13.34386,9.95791 0.2128,-16.64852 -13.59402,-9.6136 15.89945,-4.94229 4.94229,-15.899448 9.6136,13.594018 16.64852,-0.2128 -9.95791,13.34386 z"
     inkscape:randomized="0"
     inkscape:rounded="0"
     inkscape:flatsided="false"
     sodipodi:arg2="1.4137167"
     sodipodi:arg1="0.78539816"
     sodipodi:r2="12.536325"
     sodipodi:r1="25.072651"
     sodipodi:cy="116.56528"
     sodipodi:cx="150.26851"
     sodipodi:sides="5"
     id="path3884-8"
     style="opacity:1;fill:#d2f7fc;fill-opacity:1;stroke:none;stroke-width:4.26666689"
     sodipodi:type="star" /><path
     transform="matrix(0.21138619,0.19706035,-0.19320265,0.21560696,79.059783,-5.2266625)"
     inkscape:transform-center-y="1.1048429"
     inkscape:transform-center-x="-0.18648537"
     d="m 167.99755,134.29432 -15.76793,-5.34706 -13.34386,9.95791 0.2128,-16.64852 -13.59402,-9.6136 15.89945,-4.94229 4.94229,-15.899448 9.6136,13.594018 16.64852,-0.2128 -9.95791,13.34386 z"
     inkscape:randomized="0"
     inkscape:rounded="0"
     inkscape:flatsided="false"
     sodipodi:arg2="1.4137167"
     sodipodi:arg1="0.78539816"
     sodipodi:r2="12.536325"
     sodipodi:r1="25.072651"
     sodipodi:cy="116.56528"
     sodipodi:cx="150.26851"
     sodipodi:sides="5"
     id="path3884-8-6"
     style="opacity:1;fill:#d2f7fc;fill-opacity:1;stroke:none;stroke-width:4.26666689"
     sodipodi:type="star" /><path
     transform="matrix(0.15751846,0.14684328,-0.14396864,0.16066365,93.346188,8.7542404)"
     inkscape:transform-center-y="0.82329536"
     inkscape:transform-center-x="-0.13895972"
     d="m 167.99755,134.29432 -15.76793,-5.34706 -13.34386,9.95791 0.2128,-16.64852 -13.59402,-9.6136 15.89945,-4.94229 4.94229,-15.899448 9.6136,13.594018 16.64852,-0.2128 -9.95791,13.34386 z"
     inkscape:randomized="0"
     inkscape:rounded="0"
     inkscape:flatsided="false"
     sodipodi:arg2="1.4137167"
     sodipodi:arg1="0.78539816"
     sodipodi:r2="12.536325"
     sodipodi:r1="25.072651"
     sodipodi:cy="116.56528"
     sodipodi:cx="150.26851"
     sodipodi:sides="5"
     id="path3884-8-8"
     style="opacity:1;fill:#d2f7fc;fill-opacity:1;stroke:none;stroke-width:4.26666689"
     sodipodi:type="star" /><path
     transform="matrix(0.21323031,0.00864688,-0.00847761,0.2174879,36.66749,11.802515)"
     inkscape:transform-center-y="-0.60522945"
     inkscape:transform-center-x="0.36234698"
     d="m 167.99755,134.29432 -15.76793,-5.34706 -13.34386,9.95791 0.2128,-16.64852 -13.59402,-9.6136 15.89945,-4.94229 4.94229,-15.899448 9.6136,13.594018 16.64852,-0.2128 -9.95791,13.34386 z"
     inkscape:randomized="0"
     inkscape:rounded="0"
     inkscape:flatsided="false"
     sodipodi:arg2="1.4137167"
     sodipodi:arg1="0.78539816"
     sodipodi:r2="12.536325"
     sodipodi:r1="25.072651"
     sodipodi:cy="116.56528"
     sodipodi:cx="150.26851"
     sodipodi:sides="5"
     id="path3884-8-84"
     style="opacity:1;fill:#d2f7fc;fill-opacity:1;stroke:none;stroke-width:4.26666689"
     sodipodi:type="star" /><path
     transform="matrix(0.2882414,0.05046959,-0.04948159,0.29399674,6.1403819,-11.690959)"
     inkscape:transform-center-y="-1.2584783"
     inkscape:transform-center-x="-0.054844227"
     d="m 167.99755,134.29432 -15.76793,-5.34706 -13.34386,9.95791 0.2128,-16.64852 -13.59402,-9.6136 15.89945,-4.94229 4.94229,-15.899448 9.6136,13.594018 16.64852,-0.2128 -9.95791,13.34386 z"
     inkscape:randomized="0"
     inkscape:rounded="0"
     inkscape:flatsided="false"
     sodipodi:arg2="1.4137167"
     sodipodi:arg1="0.78539816"
     sodipodi:r2="12.536325"
     sodipodi:r1="25.072651"
     sodipodi:cy="116.56528"
     sodipodi:cx="150.26851"
     sodipodi:sides="5"
     id="path3884-3"
     style="opacity:1;fill:#d2f7fc;fill-opacity:1;stroke:none;stroke-width:4.26666689"
     sodipodi:type="star" /><path
     style="stroke-width:0.59263128"
     inkscape:connector-curvature="0"
     d="M 43.415341,49.694244 C 59.487115,41.351322 78.848673,47.161191 86.57488,62.645234 94.301346,78.129796 87.511302,97.514413 71.439527,105.85734 55.367752,114.20026 36.006453,108.3909 28.279988,92.906343 20.553779,77.422302 27.343565,58.037166 43.415341,49.694244 Z m 15.438198,51.838926 c 4.939776,4.2055 8.963399,5.50236 12.06766,3.89094 C 78.760144,101.35488 84.13271,95.180413 87.041565,86.900645 89.951516,78.619001 89.511661,70.681442 85.72254,63.087688 81.943765,55.51467 75.914073,50.48665 67.632167,48.001038 59.351834,45.51722 51.293172,46.307132 43.454227,50.376359 c -3.104799,1.611714 -4.440712,5.698561 -4.010625,12.257475 0.432737,6.560146 2.538114,13.625293 6.316889,21.198311 3.789122,7.593755 8.153292,13.494186 13.093048,17.701025 z"
     id="path1011" /><path
     transform="matrix(0.2882414,0.05046959,-0.04948159,0.29399674,0.78305015,52.285255)"
     inkscape:transform-center-y="-1.2584783"
     inkscape:transform-center-x="-0.054844227"
     d="m 167.99755,134.29432 -15.76793,-5.34706 -13.34386,9.95791 0.2128,-16.64852 -13.59402,-9.6136 15.89945,-4.94229 4.94229,-15.899448 9.6136,13.594018 16.64852,-0.2128 -9.95791,13.34386 z"
     inkscape:randomized="0"
     inkscape:rounded="0"
     inkscape:flatsided="false"
     sodipodi:arg2="1.4137167"
     sodipodi:arg1="0.78539816"
     sodipodi:r2="12.536325"
     sodipodi:r1="25.072651"
     sodipodi:cy="116.56528"
     sodipodi:cx="150.26851"
     sodipodi:sides="5"
     id="path3884-1"
     style="opacity:1;fill:#d2f7fc;fill-opacity:1;stroke:none;stroke-width:4.26666689"
     sodipodi:type="star" /><path
     transform="matrix(0.2882414,0.05046959,-0.04948159,0.29399674,-8.5420129,16.216556)"
     inkscape:transform-center-y="-1.2584783"
     inkscape:transform-center-x="-0.054844227"
     d="m 167.99755,134.29432 -15.76793,-5.34706 -13.34386,9.95791 0.2128,-16.64852 -13.59402,-9.6136 15.89945,-4.94229 4.94229,-15.899448 9.6136,13.594018 16.64852,-0.2128 -9.95791,13.34386 z"
     inkscape:randomized="0"
     inkscape:rounded="0"
     inkscape:flatsided="false"
     sodipodi:arg2="1.4137167"
     sodipodi:arg1="0.78539816"
     sodipodi:r2="12.536325"
     sodipodi:r1="25.072651"
     sodipodi:cy="116.56528"
     sodipodi:cx="150.26851"
     sodipodi:sides="5"
     id="path3884-36"
     style="opacity:1;fill:#d2f7fc;fill-opacity:1;stroke:none;stroke-width:4.26666689"
     sodipodi:type="star" /><path
     transform="matrix(0.20343973,-0.06571716,0.06443067,0.20750183,49.636844,14.27319)"
     inkscape:transform-center-y="0.46139461"
     inkscape:transform-center-x="0.50691872"
     d="m 167.99755,134.29432 -15.76793,-5.34706 -13.34386,9.95791 0.2128,-16.64852 -13.59402,-9.6136 15.89945,-4.94229 4.94229,-15.899448 9.6136,13.594018 16.64852,-0.2128 -9.95791,13.34386 z"
     inkscape:randomized="0"
     inkscape:rounded="0"
     inkscape:flatsided="false"
     sodipodi:arg2="1.4137167"
     sodipodi:arg1="0.78539816"
     sodipodi:r2="12.536325"
     sodipodi:r1="25.072651"
     sodipodi:cy="116.56528"
     sodipodi:cx="150.26851"
     sodipodi:sides="5"
     id="path3884-8-8-7"
     style="opacity:1;fill:#d2f7fc;fill-opacity:1;stroke:none;stroke-width:4.26666689"
     sodipodi:type="star" /><path
     transform="matrix(0.2113862,0.19706033,-0.19320263,0.21560697,95.021483,18.292212)"
     inkscape:transform-center-y="1.1048429"
     inkscape:transform-center-x="-0.18648537"
     d="m 167.99755,134.29432 -15.76793,-5.34706 -13.34386,9.95791 0.2128,-16.64852 -13.59402,-9.6136 15.89945,-4.94229 4.94229,-15.899448 9.6136,13.594018 16.64852,-0.2128 -9.95791,13.34386 z"
     inkscape:randomized="0"
     inkscape:rounded="0"
     inkscape:flatsided="false"
     sodipodi:arg2="1.4137167"
     sodipodi:arg1="0.78539816"
     sodipodi:r2="12.536325"
     sodipodi:r1="25.072651"
     sodipodi:cy="116.56528"
     sodipodi:cx="150.26851"
     sodipodi:sides="5"
     id="path3884-8-6-3"
     style="opacity:1;fill:#d2f7fc;fill-opacity:1;stroke:none;stroke-width:4.26666689"
     sodipodi:type="star" /></g></svg>