<?xml version="1.0" encoding="UTF-8"?>
<svg
  width="32"
  height="32"
  viewBox="-10 -10 220 220"
  version="1.1"
  id="fallback-plugin-icon"
  xmlns="http://www.w3.org/2000/svg"
  xmlns:svg="http://www.w3.org/2000/svg">
    <path
      d="M 25 25
         h 75
         a 25 25, 0, 0 1, 50 0
         h 25
         v 75
         a 25 25, 0, 0 1, 0 50
         v 25
         h -75
         a 25 25, 0, 0 1, -50 0
         h -25
         v -75
         a 25 25, 0, 0 1, 0 -50
         z" fill="#353535" stroke="#888a85" stroke-width="5"/>
    <g transform="translate(25, 25) scale(0.075, 0.075)">
      <path
        d="M 750,1573 C 639,1448 590,1288 623,1154 c 21,-83 50,-129 99,-155 41,-21 98,-25 129,-9 24,13 24,9 -1,-41 -31,-60 -72,-81 -145,-76 -77,5 -137,36 -175,88 -16,22 -49,102 -75,177 -25,75 -55,155 -68,177 -20,35 -65,75 -100,88 -15,6 12,29 65,57 44,24 98,26 138,5 19,-10 30,-11 30,-5 0,6 21,34 47,61 63,67 137,105 211,108 21,1 18,-5 -28,-56 z"
        id="yellow-left" fill="#ffec00"/>
      <path
        id="red-top"
        d="M 750,1573 C 639,1448 590,1288 623,1154 c 21,-83 50,-129 99,-155 41,-21 98,-25 129,-9 24,13 24,9 -1,-41 -31,-60 -72,-81 -145,-76 -77,5 -137,36 -175,88 -16,22 -49,102 -75,177 -25,75 -55,155 -68,177 -20,35 -65,75 -100,88 -15,6 12,29 65,57 44,24 98,26 138,5 19,-10 30,-11 30,-5 0,6 21,34 47,61 63,67 137,105 211,108 21,1 18,-5 -28,-56 z"
        transform="rotate(-60,1000,1000)" fill="#ff3500" />
      <path
        id="orange-right"
        d="M 750,1573 C 639,1448 590,1288 623,1154 c 21,-83 50,-129 99,-155 41,-21 98,-25 129,-9 24,13 24,9 -1,-41 -31,-60 -72,-81 -145,-76 -77,5 -137,36 -175,88 -16,22 -49,102 -75,177 -25,75 -55,155 -68,177 -20,35 -65,75 -100,88 -15,6 12,29 65,57 44,24 98,26 138,5 19,-10 30,-11 30,-5 0,6 21,34 47,61 63,67 137,105 211,108 21,1 18,-5 -28,-56 z"
        transform="rotate(-120,1000,1000)" fill="#ff9100" />
      <path
        id="yellow-right"
        d="M 750,1573 C 639,1448 590,1288 623,1154 c 21,-83 50,-129 99,-155 41,-21 98,-25 129,-9 24,13 24,9 -1,-41 -31,-60 -72,-81 -145,-76 -77,5 -137,36 -175,88 -16,22 -49,102 -75,177 -25,75 -55,155 -68,177 -20,35 -65,75 -100,88 -15,6 12,29 65,57 44,24 98,26 138,5 19,-10 30,-11 30,-5 0,6 21,34 47,61 63,67 137,105 211,108 21,1 18,-5 -28,-56 z"
        transform="rotate(180,1000,1000)" fill="#ffec00"/>
      <path
        id="red-bottom"
        d="M 750,1573 C 639,1448 590,1288 623,1154 c 21,-83 50,-129 99,-155 41,-21 98,-25 129,-9 24,13 24,9 -1,-41 -31,-60 -72,-81 -145,-76 -77,5 -137,36 -175,88 -16,22 -49,102 -75,177 -25,75 -55,155 -68,177 -20,35 -65,75 -100,88 -15,6 12,29 65,57 44,24 98,26 138,5 19,-10 30,-11 30,-5 0,6 21,34 47,61 63,67 137,105 211,108 21,1 18,-5 -28,-56 z"
        transform="rotate(120,1000,1000)" fill="#ff3500"/>
      <path
        id="orange-left"
        d="M 750,1573 C 639,1448 590,1288 623,1154 c 21,-83 50,-129 99,-155 41,-21 98,-25 129,-9 24,13 24,9 -1,-41 -31,-60 -72,-81 -145,-76 -77,5 -137,36 -175,88 -16,22 -49,102 -75,177 -25,75 -55,155 -68,177 -20,35 -65,75 -100,88 -15,6 12,29 65,57 44,24 98,26 138,5 19,-10 30,-11 30,-5 0,6 21,34 47,61 63,67 137,105 211,108 21,1 18,-5 -28,-56 z"
        transform="rotate(60,1000,1000)" fill="#ff9100"/>
    </g>
</svg>
