<?xml version="1.0" encoding="UTF-8" standalone="no"?>
<!-- Created with Inkscape (http://www.inkscape.org/) -->

<svg
   xmlns:dc="http://purl.org/dc/elements/1.1/"
   xmlns:cc="http://creativecommons.org/ns#"
   xmlns:rdf="http://www.w3.org/1999/02/22-rdf-syntax-ns#"
   xmlns:svg="http://www.w3.org/2000/svg"
   xmlns="http://www.w3.org/2000/svg"
   xmlns:xlink="http://www.w3.org/1999/xlink"
   xmlns:sodipodi="http://sodipodi.sourceforge.net/DTD/sodipodi-0.dtd"
   xmlns:inkscape="http://www.inkscape.org/namespaces/inkscape"
   inkscape:export-ydpi="90.000000"
   inkscape:export-xdpi="90.000000"
   inkscape:export-filename="/home/jimmac/Desktop/wi-fi.png"
   width="32"
   height="32"
   id="svg11300"
   sodipodi:version="0.32"
   inkscape:version="0.92.4 (5da689c313, 2019-01-14)"
   sodipodi:docname="plugin-alpha.svg"
   inkscape:output_extension="org.inkscape.output.svg.inkscape"
   sodipodi:modified="true"
   version="1.0">
  <defs
     id="defs3">
    <linearGradient
       x1="17.247635"
       y1="6.3760414"
       x2="39.904388"
       y2="38.876041"
       id="linearGradient8184"
       xlink:href="#linearGradient5137"
       gradientUnits="userSpaceOnUse"
       gradientTransform="matrix(0.63268413,0,0,0.7568257,0.77052754,1.3093733)" />
    <linearGradient
       id="linearGradient5137">
      <stop
         id="stop5139"
         style="stop-color:#eeeeec;stop-opacity:1"
         offset="0" />
      <stop
         id="stop5141"
         style="stop-color:#e6e6e3;stop-opacity:1"
         offset="1" />
    </linearGradient>
    <linearGradient
       x1="24.925514"
       y1="40.000107"
       x2="24.925514"
       y2="19.53867"
       id="linearGradient8198"
       xlink:href="#linearGradient2781"
       gradientUnits="userSpaceOnUse"
       gradientTransform="matrix(0.16077452,0,0,0.11714056,18.288694,18.312703)" />
    <linearGradient
       id="linearGradient2781">
      <stop
         id="stop2783"
         style="stop-color:#d3d7cf;stop-opacity:1"
         offset="0" />
      <stop
         id="stop2785"
         style="stop-color:#eeeeec;stop-opacity:1"
         offset="1" />
    </linearGradient>
    <linearGradient
       x1="9.5"
       y1="16.26436"
       x2="9.5"
       y2="13.408723"
       id="linearGradient8202"
       xlink:href="#linearGradient3690"
       gradientUnits="userSpaceOnUse"
       gradientTransform="matrix(0.12677732,0,0,0.09587469,19.180398,18.545602)" />
    <linearGradient
       id="linearGradient3690">
      <stop
         id="stop3692"
         style="stop-color:#ffffff;stop-opacity:1"
         offset="0" />
      <stop
         id="stop3694"
         style="stop-color:#ffffff;stop-opacity:0.46875"
         offset="1" />
    </linearGradient>
    <linearGradient
       x1="24.925514"
       y1="40.000107"
       x2="25.000021"
       y2="6.7651834"
       id="linearGradient8802"
       xlink:href="#linearGradient2781"
       gradientUnits="userSpaceOnUse"
       gradientTransform="matrix(0.12548043,0,0,0.06873649,19.478915,9.158403)" />
    <linearGradient
       x1="23.069359"
       y1="6.7993021"
       x2="23.247978"
       y2="16.782524"
       id="linearGradient8804"
       xlink:href="#linearGradient3674"
       gradientUnits="userSpaceOnUse"
       gradientTransform="matrix(0.1264622,0,0,0.22118657,19.472533,7.2470728)" />
    <linearGradient
       id="linearGradient3674">
      <stop
         id="stop3676"
         style="stop-color:#3465a4;stop-opacity:1"
         offset="0" />
      <stop
         id="stop3678"
         style="stop-color:#729fcf;stop-opacity:1"
         offset="1" />
    </linearGradient>
    <linearGradient
       x1="9.5"
       y1="16.26436"
       x2="9.5"
       y2="13.408723"
       id="linearGradient8806"
       xlink:href="#linearGradient3690"
       gradientUnits="userSpaceOnUse"
       gradientTransform="matrix(0.10060541,0,0,0.06425439,20.083891,8.8414684)" />
    <linearGradient
       x1="24.925514"
       y1="40.000107"
       x2="25.000021"
       y2="6.7651834"
       id="linearGradient8814"
       xlink:href="#linearGradient2781"
       gradientUnits="userSpaceOnUse"
       gradientTransform="matrix(0.12736101,0,0,0.07066545,6.0737096,9.1339178)" />
    <linearGradient
       x1="9.5"
       y1="16.26436"
       x2="9.5"
       y2="13.408723"
       id="linearGradient8818"
       xlink:href="#linearGradient3690"
       gradientUnits="userSpaceOnUse"
       gradientTransform="matrix(0.1021132,0,0,0.06605758,6.6877529,8.8080889)" />
    <linearGradient
       id="linearGradient47870">
      <stop
         style="stop-color:#000000;stop-opacity:0"
         offset="0"
         id="stop47872" />
      <stop
         style="stop-color:#000000;stop-opacity:1"
         offset="0.5"
         id="stop47878" />
      <stop
         style="stop-color:#000000;stop-opacity:0"
         offset="1"
         id="stop47874" />
    </linearGradient>
    <linearGradient
       id="linearGradient51765">
      <stop
         style="stop-color:#000000;stop-opacity:1"
         offset="0"
         id="stop51767" />
      <stop
         style="stop-color:#000000;stop-opacity:0"
         offset="1"
         id="stop51769" />
    </linearGradient>
  </defs>
  <sodipodi:namedview
     stroke="#ef2929"
     fill="#eeeeec"
     id="base"
     pagecolor="#ffffff"
     bordercolor="#666666"
     borderopacity="0.25490196"
     inkscape:pageopacity="0.0"
     inkscape:pageshadow="2"
     inkscape:zoom="12.671875"
     inkscape:cx="-16.572133"
     inkscape:cy="14.671985"
     inkscape:current-layer="layer1"
     showgrid="false"
     inkscape:grid-bbox="true"
     inkscape:document-units="px"
     inkscape:showpageshadow="false"
     inkscape:window-width="1920"
     inkscape:window-height="1017"
     inkscape:window-x="-8"
     inkscape:window-y="-8"
     showguides="true"
     inkscape:guide-bbox="true"
     inkscape:window-maximized="1">
    <inkscape:grid
       type="xygrid"
       id="grid7889"
       empspacing="5"
       visible="true"
       enabled="true" />
  </sodipodi:namedview>
  <metadata
     id="metadata4">
    <rdf:RDF>
      <cc:Work
         rdf:about="">
        <dc:format>image/svg+xml</dc:format>
        <dc:type
           rdf:resource="http://purl.org/dc/dcmitype/StillImage" />
        <dc:creator>
          <cc:Agent>
            <dc:title>Patrick Niklaus</dc:title>
          </cc:Agent>
        </dc:creator>
        <dc:source />
        <cc:license
           rdf:resource="http://creativecommons.org/licenses/GPL/2.0/" />
        <dc:title />
        <dc:subject>
          <rdf:Bag />
        </dc:subject>
      </cc:Work>
      <cc:License
         rdf:about="http://creativecommons.org/licenses/GPL/2.0/">
        <cc:permits
           rdf:resource="http://web.resource.org/cc/Reproduction" />
        <cc:permits
           rdf:resource="http://web.resource.org/cc/Distribution" />
        <cc:requires
           rdf:resource="http://web.resource.org/cc/Notice" />
        <cc:permits
           rdf:resource="http://web.resource.org/cc/DerivativeWorks" />
        <cc:requires
           rdf:resource="http://web.resource.org/cc/ShareAlike" />
        <cc:requires
           rdf:resource="http://web.resource.org/cc/SourceCode" />
      </cc:License>
    </rdf:RDF>
  </metadata>
  <g
     id="layer1"
     inkscape:label="Layer 1"
     inkscape:groupmode="layer">
    <g
       id="g821"
       transform="matrix(0.92541405,0,0,0.9980003,4.3482612,0.06300686)">
      <g
         id="g830"
         transform="translate(1.0646677,-0.66719594)">
        <path
           inkscape:connector-curvature="0"
           style="fill:#99dce7;fill-opacity:1;stroke:none;stroke-width:1.75959063"
           d="M -1.2875813,5.243878 V 8.6225006 H 2.3780073 V 5.243878 Z M 2.3780073,8.6225006 V 12.001121 H 6.0435957 V 8.6225006 Z m 3.6655884,0 H 9.7091843 V 5.243878 H 6.0435957 Z m 3.6655886,0 V 12.001121 H 13.374773 V 8.6225006 Z m 3.6655887,0 h 3.665588 V 5.243878 h -3.665588 z m 3.665588,0 v 3.3786204 h 3.66559 V 8.6225006 Z m 3.66559,0 h 3.665588 V 5.243878 h -3.665588 z m 0,3.3786204 v 3.378623 h 3.665588 v -3.378623 z m 0,3.378623 h -3.66559 v 3.378621 h 3.66559 z m 0,3.378621 v 3.37862 h 3.665588 v -3.37862 z m 0,3.37862 h -3.66559 v 3.378623 h 3.66559 z m 0,3.378623 v 3.378621 h 3.665588 v -3.378621 z m -3.66559,0 h -3.665588 v 3.378621 h 3.665588 z m -3.665588,0 V 22.136985 H 9.7091843 v 3.378623 z m -3.6655887,0 H 6.0435957 v 3.378621 h 3.6655886 z m -3.6655886,0 V 22.136985 H 2.3780073 v 3.378623 z m -3.6655884,0 h -3.6655886 v 3.378621 h 3.6655886 z m 0,-3.378623 v -3.37862 h -3.6655886 v 3.37862 z m 0,-3.37862 H 6.0435957 V 15.379744 H 2.3780073 Z m 0,-3.378621 v -3.378623 h -3.6655886 v 3.378623 z m 3.6655884,0 H 9.7091843 V 12.001121 H 6.0435957 Z m 3.6655886,0 v 3.378621 h 3.6655887 v -3.378621 z m 3.6655887,0 h 3.665588 v -3.378623 h -3.665588 z m 0,3.378621 v 3.37862 h 3.665588 v -3.37862 z m -3.6655887,0 H 6.0435957 v 3.37862 h 3.6655886 z"
           id="rect8808" />
        <g
           id="g823">
          <path
             id="rect8812"
             d="M 2.3780073,5.243878 V 8.6225006 H 6.0435957 V 5.243878 Z M 6.0435957,8.6225006 V 12.001121 H 9.7091843 V 8.6225006 Z m 3.6655886,0 H 13.374773 V 5.243878 H 9.7091843 Z m 3.6655887,0 v 3.3786204 h 3.665588 V 8.6225006 Z m 3.665588,0 h 3.66559 V 5.243878 h -3.66559 z m 3.66559,0 v 3.3786204 h 3.665588 V 8.6225006 Z m 0,3.3786204 h -3.66559 v 3.378623 h 3.66559 z m 0,3.378623 v 3.378621 h 3.665588 v -3.378621 z m 0,3.378621 h -3.66559 v 3.37862 h 3.66559 z m 0,3.37862 v 3.378623 h 3.665588 v -3.378623 z m 0,3.378623 h -3.66559 v 3.378621 h 3.66559 z m -3.66559,0 v -3.378623 h -3.665588 v 3.378623 z m -3.665588,0 H 9.7091843 v 3.378621 h 3.6655887 z m -3.6655887,0 V 22.136985 H 6.0435957 v 3.378623 z m -3.6655886,0 H 2.3780073 v 3.378621 h 3.6655884 z m -3.6655884,0 v -3.378623 h -3.6655886 v 3.378623 z m 0,-3.378623 h 3.6655884 v -3.37862 H 2.3780073 Z m 0,-3.37862 v -3.378621 h -3.6655886 v 3.378621 z m 0,-3.378621 H 6.0435957 V 12.001121 H 2.3780073 Z m 0,-3.378623 V 8.6225006 h -3.6655886 v 3.3786204 z m 3.6655884,3.378623 v 3.378621 h 3.6655886 v -3.378621 z m 3.6655886,0 H 13.374773 V 12.001121 H 9.7091843 Z m 3.6655887,0 v 3.378621 h 3.665588 v -3.378621 z m 0,3.378621 H 9.7091843 v 3.37862 h 3.6655887 z"
             style="fill:#ecff00;fill-opacity:1;stroke:none;stroke-width:1.75959063"
             inkscape:connector-curvature="0" />
          <rect
             ry="3.3786211"
             rx="3.6655886"
             y="4.4604988"
             x="-2.1131928"
             height="25.339661"
             width="27.491915"
             id="rect8018"
             style="opacity:1;fill:none;fill-opacity:1;fill-rule:nonzero;stroke:#204a87;stroke-width:1.75959063;stroke-opacity:1" />
          <path
             inkscape:connector-curvature="0"
             id="path8793"
             d="m 1.3908788,5.2189204 c -1.5524555,0 -2.7490411,1.1976732 -2.7490411,2.7515476 v 18.28634 c 0,0.475645 0.1207453,0.922623 0.3436307,1.31845 L 22.75321,5.4482172 C 22.396018,5.271633 21.979066,5.2189204 21.550506,5.2189204 Z"
             style="fill:#0696d6;fill-opacity:1;fill-rule:nonzero;stroke:none;stroke-width:1.75959063" />
        </g>
      </g>
    </g>
  </g>
</svg>
