<?xml version="1.0" encoding="UTF-8" standalone="no"?>
<!-- Created with Inkscape (http://www.inkscape.org/) -->
<svg
   xmlns:svg="http://www.w3.org/2000/svg"
   xmlns="http://www.w3.org/2000/svg"
   xmlns:xlink="http://www.w3.org/1999/xlink"
   version="1.0"
   width="32"
   height="32"
   id="svg11300">
  <defs
     id="defs3">
    <linearGradient
       id="linearGradient2300">
      <stop
         id="stop3572"
         style="stop-color:#000000;stop-opacity:0.32673267"
         offset="0" />
      <stop
         id="stop2304"
         style="stop-color:#000000;stop-opacity:0"
         offset="1" />
    </linearGradient>
    <linearGradient
       id="linearGradient6480">
      <stop
         id="stop6482"
         style="stop-color:#c4a000;stop-opacity:1"
         offset="0" />
      <stop
         id="stop6484"
         style="stop-color:#eeeeec;stop-opacity:0"
         offset="1" />
    </linearGradient>
    <linearGradient
       id="linearGradient5743">
      <stop
         id="stop5745"
         style="stop-color:#fce94f;stop-opacity:1"
         offset="0" />
      <stop
         id="stop5747"
         style="stop-color:#e8bf00;stop-opacity:1"
         offset="1" />
    </linearGradient>
    <linearGradient
       x1="19.49288"
       y1="26.564529"
       x2="33.425938"
       y2="21.769804"
       id="linearGradient2149"
       xlink:href="#linearGradient6480"
       gradientUnits="userSpaceOnUse"
       gradientTransform="matrix(-0.8014062,0,0,0.9356186,36.239532,-5.0498489)" />
    <radialGradient
       cx="10.831259"
       cy="35.225285"
       r="19.465654"
       fx="10.831259"
       fy="35.225285"
       id="radialGradient2152"
       xlink:href="#linearGradient5743"
       gradientUnits="userSpaceOnUse"
       gradientTransform="matrix(-0.8211413,0,0,0.5758684,24.974982,-2.8811775)" />
    <radialGradient
       cx="14.287618"
       cy="65.999184"
       r="11.68987"
       fx="14.287618"
       fy="69.694214"
       id="radialGradient7942"
       xlink:href="#linearGradient2300"
       gradientUnits="userSpaceOnUse"
       gradientTransform="matrix(1.399258,-2.234445e-7,8.196178e-8,0.513264,4.365074,4.839285)" />
  </defs>
  <g
     id="layer1">
    <path
       d="M 39.814122,38.714287 A 15.456979,6.7083316 0 1 1 8.9001646,38.714287 A 15.456979,6.7083316 0 1 1 39.814122,38.714287 z"
       transform="matrix(0.7953205,0,0,0.6699199,-1.6512062,-0.5769259)"
       id="path1538"
       style="fill:url(#radialGradient7942);fill-opacity:1;fill-rule:evenodd;stroke:none;marker:none;marker-start:none;marker-mid:none;marker-end:none;visibility:visible;display:inline;overflow:visible" />
    <path
       d="M 17.930774,6.6740146 C 19.745253,6.9045503 19.007657,9.4347332 18.932172,10.582236 C 19.619208,12.106175 21.173081,11.441398 22.241011,12.128586 C 22.69335,12.691783 22.922762,13.429167 23.288672,14.084021 C 24.132454,15.239859 24.02231,13.324487 24.693075,11.975286 C 25.36384,10.626083 27.614,10.304043 29.097238,10.609663 C 30.580476,10.915281 31.867554,11.7776 31.640337,13.340954 C 31.422169,15.023395 30.53913,16.666749 29.077655,17.164829 C 27.518114,18.019882 24.767242,18.039944 24.315894,19.593616 C 23.950053,21.040873 21.85979,22.167981 21.739499,22.098845 C 20.348361,22.645875 20.470999,22.355133 21.366891,22.947273 C 22.231269,23.518584 23.500976,23.452744 23.063703,25.025376 C 22.62868,26.58991 18.765657,26.524717 17.482771,26.521368 C 16.198983,26.518015 13.916995,26.676683 12.935017,25.022364 C 11.944316,23.353349 14.37989,22.953942 15.425367,22.529687 C 12.597586,21.594139 10.631394,18.921819 8.6791301,16.535418 C 7.0550917,14.570474 5.1060148,12.741345 2.7098266,12.386519 C 1.5556632,12.285958 -0.3740427,12.199865 0.6474016,10.54552 C 4.0025556,9.521975 5.8621639,11.122478 8.0411345,12.417303 C 9.9836896,13.505113 12.338986,13.761062 14.29382,12.566271 C 15.254464,11.90898 16.890898,11.096616 17.160825,10.085311 C 16.633841,9.104497 16.810166,6.9777728 17.930773,6.6740142 L 17.930774,6.6740146 z M 25.470969,15.752439 C 26.672896,15.806726 28.510418,16.050057 28.957376,14.341818 C 28.903122,10.70304 25.780188,13.252069 25.470969,15.752438 L 25.470969,15.752439 z"
       id="rect2101"
       style="fill:url(#radialGradient2152);fill-opacity:1;stroke:#be9800;stroke-width:1;stroke-linecap:round;stroke-miterlimit:4;stroke-opacity:1;stroke-dasharray:none" />
    <path
       d="M 22.517439,17.004763 C 21.346245,15.637538 13.552507,16.557002 11.205836,15.318382 L 10.128068,16.796575 C 11.665408,19.310275 16.623739,26.919881 21.872127,22.022635 C 23.348129,19.25191 23.305811,19.311128 22.517439,17.004763 L 22.517439,17.004763 z"
       id="rect6477"
       style="opacity:0.37999998;fill:url(#linearGradient2149);fill-opacity:1;stroke:none" />
    <path
       d="M 16.25141,16.183783 C 18.887436,16.577566 24.217152,14.897842 22.601378,21.073362 C 26.629635,14.955398 19.698432,15.525716 16.25141,16.183783 z"
       id="rect3072"
       style="opacity:0.68000034;fill:#eeeeec;fill-opacity:1;stroke:none" />
    <path
       d="M 21.471445,23.182928 C 18.140446,24.895756 16.719607,24.137875 14.363598,23.062726 C 15.765214,26.076862 20.297344,25.321711 21.471445,23.182928 z"
       id="rect4845"
       style="opacity:0.68000034;fill:#eeeeec;fill-opacity:1;stroke:none" />
    <path
       d="M 21.885183,12.484117 C 19.611844,14.575767 17.366313,13.71675 15.011464,12.653827 C 14.650345,12.953297 14.277552,13.116292 13.851181,13.331298 C 16.580769,14.765521 19.873805,15.33824 22.363902,13.332581 C 22.221905,12.9574 22.070116,12.763035 21.885183,12.484117 z"
       id="path4852"
       style="opacity:0.68000034;fill:#eeeeec;fill-opacity:1;stroke:none" />
    <path
       d="M 24.90124,13.293982 C 25.228878,11.434309 32.603152,9.4285677 29.79961,16.334376 C 30.644128,15.282017 31.006584,14.242843 31.117717,13.515171 C 31.48365,11.119142 28.404043,10.617665 26.416048,11.229537 C 25.326566,11.564861 24.642567,12.401279 24.90124,13.293982 z"
       id="path7373"
       style="opacity:0.68000034;fill:#eeeeec;fill-opacity:1;stroke:none" />
    <path
       d="M 12.520607,20.126185 C 12.211233,17.534887 9.9532825,15.023259 5.3618268,12.839971 C 9.1117604,15.479416 10.243346,18.177457 12.520607,20.126185 z"
       id="path7375"
       style="opacity:0.68000034;fill:#eeeeec;fill-opacity:1;stroke:none" />
    <path
       d="M 20.454242,22.032536 C 21.808299,21.628654 23.417272,21.053738 24.015662,19.016691 C 22.347176,20.793431 21.576598,21.069879 20.454242,22.032536 z"
       id="path7379"
       style="opacity:0.7;fill:#eeeeec;fill-opacity:1;stroke:none" />
    <path
       d="M 18.41196,10.663619 C 17.909169,11.007885 17.593751,11.044833 17.426216,10.679113 C 17.288376,11.184117 16.198042,11.880318 15.56824,12.356099 L 17.23808,12.872936 C 17.912294,12.217113 18.221597,11.665029 18.47446,10.804244 L 18.41196,10.663619 z"
       id="rect7381"
       style="opacity:0.68000034;fill:#eeeeec;fill-opacity:1;stroke:none" />
    <path
       d="M 17.951537,7.1791699 C 17.394578,7.6103259 17.125923,8.9818459 17.679335,10.060279 C 17.427603,8.3985629 17.946142,8.2279479 17.951537,7.1791699 z"
       id="path8269"
       style="opacity:0.7;fill:#eeeeec;fill-opacity:1;stroke:none" />
    <path
       d="M 1.003184,10.95535 C 2.9064683,11.233507 2.015199,11.17793 6.8403751,12.245002 C 4.3266156,10.63358 3.3196494,10.415637 1.003184,10.95535 z"
       id="path2155"
       style="opacity:0.68000034;fill:#eeeeec;fill-opacity:1;stroke:none" />
  </g>
</svg>
